<?xml version="1.0" encoding="utf-8"?>
<!-- Generator: Adobe Illustrator 24.1.1, SVG Export Plug-In . SVG Version: 6.00 Build 0)  -->
<svg version="1.1" id="katman_1" xmlns="http://www.w3.org/2000/svg" xmlns:xlink="http://www.w3.org/1999/xlink" x="0px" y="0px"
	 viewBox="0 0 670 180" style="enable-background:new 0 0 670 180;" xml:space="preserve">
<style type="text/css">
	.st0{opacity:0.2;}
	.st1{fill:none;stroke:#ED1C24;stroke-miterlimit:10;}
	.st2{fill:none;stroke:#ED1C24;stroke-width:0.6;stroke-linecap:round;stroke-linejoin:round;stroke-miterlimit:10;}
	.st3{fill:url(#SVGID_1_);stroke:#ED1C24;stroke-miterlimit:10;}
	.st4{fill:none;stroke:#ED1C24;stroke-width:0.6;stroke-miterlimit:10;}
	.st5{fill:none;stroke:#ED1C24;stroke-width:0.5;stroke-linecap:round;stroke-linejoin:round;stroke-miterlimit:10;}
	.st6{fill:none;}
	.st7{fill:none;stroke:#000000;stroke-width:0.6;stroke-linecap:round;stroke-linejoin:round;stroke-miterlimit:10;}
	.st8{fill:url(#SVGID_2_);}
	.st9{fill:none;stroke:#000000;stroke-width:0.6;stroke-miterlimit:10;}
	.st10{fill:none;stroke:#000000;stroke-width:0.5;stroke-linecap:round;stroke-linejoin:round;stroke-miterlimit:10;}
	.st11{opacity:0.5;}
	.st12{fill:none;stroke:#0000FF;stroke-miterlimit:10;}
	.st13{fill:none;stroke:#0000FF;stroke-width:0.6;stroke-linecap:round;stroke-linejoin:round;stroke-miterlimit:10;}
	.st14{opacity:0.2;fill:none;stroke:#0000FF;stroke-width:0.6;stroke-linecap:round;stroke-linejoin:round;stroke-miterlimit:10;}
	.st15{fill:url(#SVGID_3_);stroke:#0000FF;stroke-miterlimit:10;}
	.st16{fill:none;stroke:#0000FF;stroke-width:0.6;stroke-miterlimit:10;}
	.st17{fill:none;stroke:#0000FF;stroke-width:0.5;stroke-linecap:round;stroke-linejoin:round;stroke-miterlimit:10;}
</style>
<g>
	<path d="M54.4745598,125.7092743h-2.5778236v-34.216362c-0.0325127-5.1147156-1.1703491-8.9183655-3.413517-11.4133072
		c-2.2431641-2.4939957-5.8163605-3.7414627-10.716713-3.7414627c-5.665287,0-10.2960033,2.4628983-13.8921471,7.38871
		c-2.1322517,2.9504929-3.5483341,6.2133179-4.2482471,9.7903671v32.1920547H17V74.7364044h2.626112v12.0601273
		c1.7497845-4.145668,4.2482471-7.349144,7.4944344-9.6104126c3.2461853-2.2612762,6.842329-3.3919144,10.7893848-3.3919144
		c4.32761,0,7.8682938,0.9421997,10.6210976,2.8265915c2.7518463,1.8843994,4.558979,4.9625549,5.4185944,9.2335358
		c1.5270004-3.6745682,4.0092087-6.6029205,7.4475822-8.7859879c3.4364662-2.1826019,7.2869453-3.2741394,11.5524025-3.2741394
		c5.568718,0,9.714653,1.5546265,12.4359055,4.6638794c2.7202988,3.1092529,4.0962219,7.7731247,4.1287308,13.9916306v33.2595596
		h-2.5778275V92.6697159c0-5.584877-1.1378403-9.7182922-3.4135132-12.4016724
		c-2.2756805-2.6824341-5.8479156-3.9925613-10.7167206-3.9299011c-6.2705383,0.0942154-11.2349548,2.5571213-14.8951607,7.38871
		c-2.0997429,2.7926712-3.2452278,5.4915924-3.4364624,8.0958252V125.7092743z"/>
	<path d="M123.7430954,126.651474c-4.1707993,0-7.9973755-1.1070862-11.4816513-3.3212509
		c-3.4842682-2.2141571-6.2141266-5.2527466-8.1866989-9.1157532c-1.973526-3.8630066-2.960289-8.1500092-2.960289-12.8609924
		v-2.1199417c0-4.7109909,0.9542542-9.0290756,2.8646774-12.9552155c1.909462-3.9256668,4.5341415-6.9878082,7.8768997-9.1864243
		c3.3408432-2.198143,6.9847946-3.2976913,10.9308929-3.2976913c5.7599487,0,10.4709778,2.0257263,14.1311951,6.077179
		c3.6592407,4.051445,5.4893494,9.374855,5.4893494,15.9702377v2.6852646h-38.7151871v2.7742996
		c0,4.1381302,0.8834915,7.9709854,2.6495361,11.4976349c1.766037,3.5266418,4.2004395,6.2929306,7.3041534,8.2993393
		c3.1027603,2.0068817,6.4684677,3.0093765,10.0971222,3.0093765c3.4670563,0,6.4197006-0.5690842,8.8541031-1.7077332
		c2.4353485-1.1386414,4.591507-2.893486,6.4694214-5.2645264l1.8138428,1.2719727
		C137.0290222,123.9035568,131.3159332,126.651474,123.7430954,126.651474z M122.7869263,76.3381424
		c-5.0275192,0-9.2920227,1.8452911-12.7935104,5.535408c-3.5014801,3.6905823-5.5534134,8.3935623-6.1577072,14.1094055h35.993927
		v-0.6124344c0-3.454567-0.7400665-6.6660461-2.2192535-9.6339645c-1.4801483-2.9679184-3.517746-5.2763062-6.1108704-6.925148
		C128.9054413,77.1625595,126.001564,76.3381424,122.7869263,76.3381424z"/>
	<path d="M157.6363373,125.7092743h-2.5778351V53.3485298h2.5778351V125.7092743z"/>
	<path d="M173.8672638,58.8132706c0-0.7221909,0.2543335-1.3426285,0.7639771-1.860836
		c0.5086823-0.5182114,1.1292267-0.7773132,1.8616486-0.7773132c0.7314758,0,1.3606262,0.2591019,1.8855591,0.7773132
		c0.5249481,0.5182076,0.7878876,1.1386452,0.7878876,1.860836c0,0.7226677-0.2629395,1.3350945-0.7878876,1.8372879
		c-0.5249329,0.5026588-1.1540833,0.7537575-1.8855591,0.7537575c-0.7324219,0-1.3529663-0.2510986-1.8616486-0.7537575
		C174.1215973,60.148365,173.8672638,59.5359383,173.8672638,58.8132706z M177.7818146,125.7092743h-2.5778351V74.7364044h2.5778351
		V125.7092743z"/>
	<path d="M204.8967743,98.1500092l-0.0956116,0.0942154l-7.4944305,6.3598328v21.105217h-2.5778351V53.3485298h2.5778351v48.4760475
		l6.062088-5.653183l23.4872894-21.4349899h3.6754913l-23.7243958,21.7176437l25.2045441,29.2552261h-3.3408356
		L204.8967743,98.1500092z"/>
	<path d="M258.6027527,126.651474c-4.1708069,0-7.9973907-1.1070862-11.4816589-3.3212509
		c-3.4842682-2.2141571-6.2150726-5.2527466-8.1866913-9.1157532c-1.973526-3.8630066-2.9602966-8.1500092-2.9602966-12.8609924
		v-2.1199417c0-4.7109909,0.9542542-9.0290756,2.8646698-12.9552155c1.9085083-3.9256668,4.5341492-6.9878082,7.8769073-9.1864243
		c3.3408508-2.198143,6.9857483-3.2976913,10.9308929-3.2976913c5.7599487,0,10.4719543,2.0257263,14.130249,6.077179
		c3.6601868,4.051445,5.4902954,9.374855,5.4902954,15.9702377v2.6852646h-38.7151947v2.7742996
		c0,4.1381302,0.8834991,7.9709854,2.6504974,11.4976349c1.7650909,3.5266418,4.1994934,6.2929306,7.3032074,8.2993393
		c3.103714,2.0068817,6.467514,3.0093765,10.0971222,3.0093765c3.467041,0,6.4197083-0.5690842,8.8540955-1.7077332
		c2.4343872-1.1386414,4.5915222-2.893486,6.4694214-5.2645264l1.8128967,1.2719727
		C271.8896484,123.9035568,266.1755981,126.651474,258.6027527,126.651474z M257.6465759,76.3381424
		c-5.0275269,0-9.2920227,1.8452911-12.7935028,5.535408c-3.5014801,3.6905823-5.553421,8.3935623-6.1577148,14.1094055h35.9939423
		v-0.6124344c0-3.454567-0.7400818-6.6660461-2.2202148-9.6339645c-1.478241-2.9679184-3.5167847-5.2763062-6.1099243-6.925148
		C263.7660522,77.1625595,260.8612061,76.3381424,257.6465759,76.3381424z"/>
	<path d="M306.8183899,124.1075363c4.6775818,0,8.5366821-1.2248535,11.5772705-3.6745682
		c3.0386963-2.4497147,4.700531-5.8416214,4.9873657-10.1757278h2.5778198
		c-0.2543335,4.9309921-2.1800537,8.896225-5.775238,11.8952408c-3.5971069,2.9994812-8.0528259,4.4989929-13.367218,4.4989929
		c-6.4617615,0-11.5925598-2.3083878-15.3961792-6.9251556c-3.8036194-4.6167603-5.7044983-10.8823776-5.7044983-18.7968292
		v-1.6959534c0-7.7260208,1.9008789-13.8974152,5.7044983-18.5141754c3.8036194-4.6167679,8.9038086-6.9251556,15.3005676-6.9251556
		c5.473114,0,9.993866,1.6177597,13.5584412,4.8523178c3.5626831,3.2350388,5.4578247,7.5375824,5.6796265,12.9081039h-2.5778198
		c-0.2218323-4.5852051-1.8530273-8.2677841-4.8936462-11.0472641c-3.0386963-2.77948-6.960907-4.16922-11.7666016-4.16922
		c-5.7599487,0-10.2711182,2.0492783-13.5335693,6.1478348s-4.8936768,9.7913132-4.8936768,17.0773239v1.6488495
		c0,7.1296005,1.6465454,12.7276688,4.9414673,16.7946625C296.5300598,122.0742798,301.0584717,124.1075363,306.8183899,124.1075363
		z"/>
	<path d="M341.4756165,86.6080933c1.686676-3.9572296,4.1688843-7.0820313,7.4466248-9.3748627
		c3.2777405-2.292366,6.905426-3.4390259,10.8850098-3.4390259c5.5381165,0,9.6496277,1.5470886,12.340271,4.6403275
		c2.6887512,3.0937042,4.0484314,7.7655869,4.0809326,14.0151825v33.2595596h-2.5778198V92.3870544
		c-0.0325317-5.4586182-1.1627197-9.498291-3.3886719-12.1190109c-2.2278442-2.6197815-5.7618408-3.9299011-10.5981445-3.9299011
		c-4.455719,0-8.3148193,1.5612183-11.5772705,4.6831894c-3.2624207,3.1224442-5.4654541,7.1456223-6.6109314,12.0718994v32.6160431
		h-2.5778198V53.3485298h2.5778198V86.6080933z"/>
	<path d="M425.7808228,125.7092743c-0.6368103-2.1670532-0.9542542-5.2763062-0.9542542-9.3277512
		c-2.0366211,3.2665939-4.8209839,5.7945099-8.3549805,7.5846863c-3.532074,1.7901764-7.526947,2.6852646-11.9807739,2.6852646
		c-4.7750854,0-8.6169739-1.2795029-11.5294495-3.8394547c-2.9124756-2.5594788-4.3677673-5.8962708-4.3677673-10.010849
		c0-4.6794205,2.1398926-8.4246521,6.4197083-11.2357025c4.2817078-2.8105698,9.9689941-4.2474213,17.0675659-4.3105469h12.745697
		v-7.4433594c0-4.2709808-1.3596497-7.5846863-4.0809021-9.9401779c-2.7212524-2.3554993-6.612854-3.5332413-11.6728821-3.5332413
		c-4.710083,0-8.6399231,1.1937637-11.7914429,3.5803452c-3.1496277,2.3870621-4.7254028,5.3394318-4.7254028,8.8566589
		l-2.5778198-0.094223c0-4.145668,1.8453979-7.6628876,5.5381165-10.5526047
		c3.6908264-2.8892517,8.2096558-4.3341141,13.5565491-4.3341141c5.5686951,0,9.9938354,1.3741989,13.2715759,4.1221161
		c3.2777405,2.7483902,4.9644165,6.6189346,5.0600281,11.6125793v24.3557968c0,5.5905304,0.4455872,9.3908844,1.336731,11.400589
		v0.4239883H425.7808228z M404.4908142,124.1075363c4.8363037,0,8.9975281-1.0675049,12.4837341-3.2034683
		c3.4842529-2.1354904,6.1022339-5.1349716,7.8520203-8.9979858V99.798851h-11.9348755
		c-7.3835144,0-13.0325317,1.4448624-16.9470825,4.3341064c-3.1821289,2.3554916-4.7731934,5.2923203-4.7731934,8.8095474
		c0,3.1092453,1.2564087,5.7473984,3.7711182,7.9144516C397.4553528,123.0240097,400.6393738,124.1075363,404.4908142,124.1075363z"
		/>
	<path d="M446.5946655,86.6080933c1.686676-3.9572296,4.1688843-7.0820313,7.4466248-9.3748627
		c3.2777405-2.292366,6.905426-3.4390259,10.8850098-3.4390259c5.5381165,0,9.6496277,1.5470886,12.340271,4.6403275
		c2.6887512,3.0937042,4.0484314,7.7655869,4.0809326,14.0151825v33.2595596h-2.5778198V92.3870544
		c-0.0325317-5.4586182-1.1627197-9.498291-3.3886719-12.1190109c-2.2278748-2.6197815-5.7618408-3.9299011-10.5981445-3.9299011
		c-4.4557495,0-8.3148193,1.5612183-11.5772705,4.6831894c-3.2624207,3.1224442-5.4654541,7.1456223-6.6109314,12.0718994
		v32.6160431h-2.5778198V74.7364044h2.5778198V86.6080933z"/>
</g>
<g>
	<g class="st0">
		<path class="st1" d="M515.786499,140.8886414l21.0058594-36.4837952c-0.000061,0-0.000061-0.0000839-0.000061-0.0000839
			C529.7598267,116.5870743,522.7462769,128.6881866,515.786499,140.8886414"/>
		<path class="st2" d="M536.7922974,104.4047623c-7.0324707,12.182312-14.0460205,24.2834396-21.0056763,36.4838791
			l21.0057373-36.4837875C536.7922974,104.4048538,536.7922974,104.4047623,536.7922974,104.4047623z"/>
		<path class="st2" d="M534.3756714,79.0487137c-3.5754395-6.2510986-6.9240112-12.4162369-10.5369873-18.8418732
			c-0.9692993-1.8234901-1.8505249-3.4733162-2.907959-5.2099724c-0.5286865-0.955162-1.1455688-1.9103241-1.6742554-2.9523201
			c-1.7624512-3.2996483-3.6129761-6.3387985-5.2717896-9.5150566"/>
		<path class="st2" d="M553.4196777,62.4032097c-7.4648438-3.7593384-38.0426025-19.3892593-39.5019531-19.9866714"/>
		<path class="st2" d="M614.1026611,41.8492088c-0.2050171,0.1227036-18.8231201,32.6171379-21.2657471,36.7661858"/>
		<path class="st2" d="M613.9529419,41.4251251c-10.4748535,10.6922455-32.9066772,31.1018524-34.7156982,32.9241409"/>
		<path class="st2" d="M613.9529419,41.6445313c-5.3650513,3.1160507-36.5371094,21.7683258-37.5067749,22.4318314"/>
		<path class="st2" d="M516.104248,141.1446686c3.4165039-2.0935364,6.6769409-4.0038605,10.2017822-6.0878601
			c4.7584839-2.9523163,9.076355-5.4704742,13.8348999-8.3359528c4.6703491-2.778656,8.7089844-5.4006577,13.2180176-8.0754623"/>
		<path class="st1" d="M514.3530884,42.8452759"/>
		<path class="st2" d="M549.9308472,73.1846695c-8.5527344-7.096489-34.9206543-29.6864204-35.1121216-29.8306656
			l35.0819702,29.8488083C549.9103394,73.1964111,549.9204102,73.1904221,549.9308472,73.1846695z"/>
		<path class="st2" d="M595.3635864,103.7023773c5.0516357,9.298851,10.1625977,18.3294754,15.3616943,27.7942505
			c1.7624512,3.1259918,3.4367065,6.1651459,5.1724854,9.1978607"/>
		<path class="st2" d="M579.0901489,109.1379929l36.671814,31.9030228l-36.6618042-31.929184
			C579.0969849,109.1206436,579.0939331,109.1293564,579.0901489,109.1379929"/>
		<line class="st2" x1="615.3956909" y1="141.2219086" x2="575.7415771" y2="119.8610229"/>
		<line class="st2" x1="550.8035278" y1="108.6595764" x2="515.8197632" y2="140.8745728"/>
		
			<radialGradient id="SVGID_1_" cx="-945.720459" cy="18.0602913" r="0.1628117" gradientTransform="matrix(115.9626465 0 0 -114.2684555 110233.0703125 2111.5114746)" gradientUnits="userSpaceOnUse">
			<stop  offset="0" style="stop-color:#CBA32A"/>
			<stop  offset="0.2415459" style="stop-color:#D1AA36"/>
			<stop  offset="0.6092848" style="stop-color:#D7B241"/>
			<stop  offset="1" style="stop-color:#D9B445"/>
		</radialGradient>
		<polygon class="st3" points="564.8146362,21.4793491 564.8146362,21.4793491 564.8146362,74.1000824 		"/>
		<path class="st2" d="M634.899353,90.7691193c-0.1043701-0.051651-55.8322754-15.5905609-55.9128418-15.6784592"/>
		<path class="st2" d="M634.8516235,91.5458832c-6.3537598,1.9814835-55.397522,17.0108261-56.088623,17.2226105"/>
		<line class="st2" x1="582.5037231" y1="91.1193314" x2="634.90979" y2="91.2929993"/>
		<path class="st2" d="M493.1389465,91.2055283c19.1393738-5.5810928,57.2147522-16.9060135,57.3251648-17.1054688"/>
		<path class="st2" d="M493.2913818,91.3630829c7.5250854,2.1875839,56.1868896,16.8983307,56.8032227,17.115593"/>
		<line class="st2" x1="547.102478" y1="91.2929993" x2="494.2302551" y2="91.3798294"/>
		<path class="st2" d="M565.0349121,160.6040497c0.6609497-2.7102356,16.6107178-63.7537537,16.8057861-65.1335297"/>
		<path class="st2" d="M564.6384277,160.6724854c-5.7196655-21.859314-11.329834-43.2538986-17.0072632-65.2115097"/>
		<line class="st2" x1="565.109436" y1="109.3831863" x2="564.8146362" y2="160.6724854"/>
		<path class="st4" d="M550.5709229,80.9456787c-2.1791382,2.8899841-3.4684448,6.4702682-3.4684448,10.3473587
			c0,9.591301,7.890564,17.3665771,17.6240845,17.3665771s17.6240234-7.7752762,17.6240234-17.3665771
			s-7.8905029-17.3665771-17.6240234-17.3665771C558.9275513,73.9264603,553.7827148,76.686264,550.5709229,80.9456787"/>
		<line class="st5" x1="564.6481323" y1="20.017662" x2="565.1004028" y2="73.9264145"/>
		<path class="st2" d="M581.2549438,85.1088715c-0.9857788-3.618042-16.6018677-65.718483-16.6201782-65.7813492
			c-3.4797363,13.9152355-15.6308594,58.5452728-17.3894043,69.3993835"/>
	</g>
	<g>
		<path class="st6" d="M524.4882813,140.8886414l21.0058594-36.4837952c-0.0001221,0-0.0001221-0.0000839-0.0001221-0.0000839
			C538.4616089,116.5870743,531.447998,128.6881866,524.4882813,140.8886414"/>
		<path class="st7" d="M545.4940186,104.4047623c-7.0324097,12.182312-14.0460205,24.2834396-21.0056763,36.4838791
			l21.0057983-36.4837875C545.4940186,104.4048538,545.4940186,104.4047623,545.4940186,104.4047623z"/>
		<path class="st7" d="M543.0774536,79.0487137c-3.5755005-6.2510986-6.9240723-12.4162369-10.5369873-18.8418732
			c-0.9693604-1.8234901-1.8505249-3.4733162-2.90802-5.2099724c-0.5286865-0.955162-1.1455078-1.9103241-1.6742554-2.9523201
			c-1.7623901-3.2996483-3.612915-6.3387985-5.2717896-9.5150566"/>
		<path class="st7" d="M562.1213989,62.4032097c-7.4648438-3.7593384-38.0426025-19.3892593-39.5019531-19.9866714"/>
		<path class="st7" d="M622.8043823,41.8492088c-0.2049561,0.1227036-18.8231201,32.6171379-21.2657471,36.7661858"/>
		<path class="st7" d="M622.6546631,41.4251251c-10.4748535,10.6922455-32.9066772,31.1018524-34.7156982,32.9241409"/>
		<path class="st7" d="M622.6546631,41.6445313c-5.3650513,3.1160507-36.5371094,21.7683258-37.5067749,22.4318314"/>
		<path class="st7" d="M524.8059692,141.1446686c3.4165039-2.0935364,6.6769409-4.0038605,10.2017822-6.0878601
			c4.7584839-2.9523163,9.076416-5.4704742,13.8348999-8.3359528c4.6703491-2.778656,8.7089844-5.4006577,13.2180176-8.0754623"/>
		<path class="st6" d="M523.0548096,42.8452759"/>
		<path class="st7" d="M558.6325684,73.1846695c-8.5527344-7.096489-34.9206543-29.6864204-35.1121216-29.8306656
			l35.0819702,29.8488083C558.6120605,73.1964111,558.6221924,73.1904221,558.6325684,73.1846695z"/>
		<path class="st7" d="M604.0653076,103.7023773c5.0516357,9.298851,10.1626587,18.3294754,15.3617554,27.7942505
			c1.7623901,3.1259918,3.4366455,6.1651459,5.1724854,9.1978607"/>
		<path class="st7" d="M587.7918701,109.1379929l36.671814,31.9030228l-36.6617432-31.929184
			C587.7987671,109.1206436,587.7956543,109.1293564,587.7918701,109.1379929"/>
		<line class="st7" x1="624.0974121" y1="141.2219086" x2="584.4432983" y2="119.8610229"/>
		<line class="st7" x1="559.505249" y1="108.6595764" x2="524.5214844" y2="140.8745728"/>
		
			<radialGradient id="SVGID_2_" cx="-945.6454468" cy="18.0602913" r="0.1628117" gradientTransform="matrix(115.9626465 0 0 -114.2684555 110233.0703125 2111.5114746)" gradientUnits="userSpaceOnUse">
			<stop  offset="0" style="stop-color:#CBA32A"/>
			<stop  offset="0.2415459" style="stop-color:#D1AA36"/>
			<stop  offset="0.6092848" style="stop-color:#D7B241"/>
			<stop  offset="1" style="stop-color:#D9B445"/>
		</radialGradient>
		<polygon class="st8" points="573.5163574,21.4793491 573.5163574,21.4793491 573.5163574,74.1000824 		"/>
		<path class="st7" d="M643.6011353,90.7691193c-0.1044312-0.051651-55.8322754-15.5905609-55.9129028-15.6784592"/>
		<path class="st7" d="M643.5533447,91.5458832c-6.3536987,1.9814835-55.397522,17.0108261-56.088623,17.2226105"/>
		<line class="st7" x1="591.2055054" y1="91.1193314" x2="643.6115723" y2="91.2929993"/>
		<path class="st7" d="M501.8406677,91.2055283c19.1393738-5.5810928,57.2147522-16.9060135,57.3251648-17.1054688"/>
		<path class="st7" d="M501.9931335,91.3630829c7.5250854,2.1875839,56.1868591,16.8983307,56.8031921,17.115593"/>
		<line class="st7" x1="555.8041992" y1="91.2929993" x2="502.9320068" y2="91.3798294"/>
		<path class="st7" d="M573.7366943,160.6040497c0.6608887-2.7102356,16.6106567-63.7537537,16.8057861-65.1335297"/>
		<path class="st7" d="M573.3401489,160.6724854c-5.7196655-21.859314-11.329834-43.2538986-17.0072632-65.2115097"/>
		<line class="st7" x1="573.8111572" y1="109.3831863" x2="573.5163574" y2="160.6724854"/>
		<path class="st9" d="M559.272644,80.9456787c-2.1791382,2.8899841-3.4684448,6.4702682-3.4684448,10.3473587
			c0,9.591301,7.890564,17.3665771,17.6240845,17.3665771s17.6240845-7.7752762,17.6240845-17.3665771
			s-7.890564-17.3665771-17.6240845-17.3665771C567.6292725,73.9264603,562.484436,76.686264,559.272644,80.9456787"/>
		<line class="st10" x1="573.3498535" y1="20.017662" x2="573.802124" y2="73.9264145"/>
		<path class="st7" d="M589.956665,85.1088715c-0.9857788-3.618042-16.6018677-65.718483-16.6201782-65.7813492
			c-3.4796753,13.9152355-15.6307983,58.5452728-17.3894043,69.3993835"/>
	</g>
	<g class="st11">
		<path class="st12" d="M533.876709,140.8886414l21.0058594-36.4837952c-0.000061,0-0.000061-0.0000839-0.000061-0.0000839
			C547.8500366,116.5870743,540.8364258,128.6881866,533.876709,140.8886414"/>
		<path class="st13" d="M554.8825073,104.4047623c-7.0324707,12.182312-14.0460815,24.2834396-21.0057373,36.4838791
			l21.0057983-36.4837875C554.8825073,104.4048538,554.8825073,104.4047623,554.8825073,104.4047623z"/>
		<path class="st13" d="M552.4658813,79.0487137c-3.5755005-6.2510986-6.9240723-12.4162369-10.5369873-18.8418732
			c-0.9692993-1.8234901-1.8505249-3.4733162-2.907959-5.2099724c-0.5287476-0.955162-1.1455688-1.9103241-1.6743164-2.9523201
			c-1.7623901-3.2996483-3.612915-6.3387985-5.2717896-9.5150566"/>
		<path class="st13" d="M571.5098267,62.4032097c-7.4648438-3.7593384-38.0425415-19.3892593-39.5019531-19.9866714"/>
		<path class="st13" d="M632.1928101,41.8492088c-0.2049561,0.1227036-18.8231201,32.6171379-21.265686,36.7661858"/>
		<path class="st13" d="M632.0430908,41.4251251c-10.4748535,10.6922455-32.9066772,31.1018524-34.7156982,32.9241409"/>
		<path class="st13" d="M632.0430908,41.6445313c-5.3649902,3.1160507-36.5371094,21.7683258-37.5067749,22.4318314"/>
		<path class="st13" d="M534.194397,141.1446686c3.4165649-2.0935364,6.677002-4.0038605,10.2017822-6.0878601
			c4.7585449-2.9523163,9.076416-5.4704742,13.8348999-8.3359528c4.6704102-2.778656,8.7090454-5.4006577,13.2180786-8.0754623"/>
		<path class="st12" d="M532.4432373,42.8452759"/>
		<path class="st13" d="M568.0209961,73.1846695c-8.5526733-7.096489-34.9206543-29.6864204-35.1121216-29.8306656
			l35.0819702,29.8488083C568.0004883,73.1964111,568.0106201,73.1904221,568.0209961,73.1846695z"/>
		<path class="st13" d="M613.4537354,103.7023773c5.0516968,9.298851,10.1626587,18.3294754,15.3617554,27.7942505
			c1.7623901,3.1259918,3.4367065,6.1651459,5.1724854,9.1978607"/>
		<path class="st14" d="M597.1802979,109.1379929l36.671814,31.9030228l-36.6617432-31.929184
			C597.1871948,109.1206436,597.184082,109.1293564,597.1802979,109.1379929"/>
		<line class="st13" x1="633.4859009" y1="141.2219086" x2="593.8317261" y2="119.8610229"/>
		<line class="st13" x1="568.8936768" y1="108.6595764" x2="533.9099121" y2="140.8745728"/>
		
			<radialGradient id="SVGID_3_" cx="-945.5644531" cy="18.0602913" r="0.1628117" gradientTransform="matrix(115.9626465 0 0 -114.2684555 110233.0703125 2111.5114746)" gradientUnits="userSpaceOnUse">
			<stop  offset="0" style="stop-color:#CBA32A"/>
			<stop  offset="0.2415459" style="stop-color:#D1AA36"/>
			<stop  offset="0.6092848" style="stop-color:#D7B241"/>
			<stop  offset="1" style="stop-color:#D9B445"/>
		</radialGradient>
		<polygon class="st15" points="582.9048462,21.4793491 582.9048462,21.4793491 582.9048462,74.1000824 		"/>
		<path class="st13" d="M652.989563,90.7691193c-0.1043701-0.051651-55.8322754-15.5905609-55.9128418-15.6784592"/>
		<path class="st13" d="M652.9418335,91.5458832c-6.3537598,1.9814835-55.397522,17.0108261-56.088623,17.2226105"/>
		<line class="st13" x1="600.5939331" y1="91.1193314" x2="653" y2="91.2929993"/>
		<path class="st13" d="M511.229126,91.2055283c19.1394043-5.5810928,57.2147827-16.9060135,57.3251953-17.1054688"/>
		<path class="st13" d="M511.3815918,91.3630829c7.5250854,2.1875839,56.1868896,16.8983307,56.8031616,17.115593"/>
		<line class="st13" x1="565.192627" y1="91.2929993" x2="512.3204346" y2="91.3798294"/>
		<path class="st13" d="M583.1251221,160.6040497c0.6608887-2.7102356,16.6106567-63.7537537,16.8057861-65.1335297"/>
		<path class="st13" d="M582.7285767,160.6724854c-5.7196045-21.859314-11.3297729-43.2538986-17.0072021-65.2115097"/>
		<line class="st13" x1="583.199646" y1="109.3831863" x2="582.9048462" y2="160.6724854"/>
		<path class="st16" d="M568.6610718,80.9456787c-2.1790771,2.8899841-3.4683838,6.4702682-3.4683838,10.3473587
			c0,9.591301,7.890564,17.3665771,17.6240234,17.3665771c9.7335205,0,17.6240845-7.7752762,17.6240845-17.3665771
			s-7.890564-17.3665771-17.6240845-17.3665771C577.0177002,73.9264603,571.8729248,76.686264,568.6610718,80.9456787"/>
		<line class="st17" x1="582.7383423" y1="20.017662" x2="583.1905518" y2="73.9264145"/>
		<path class="st13" d="M599.3450928,85.1088715c-0.9857788-3.618042-16.6018066-65.718483-16.6201782-65.7813492
			c-3.4796753,13.9152355-15.6307983,58.5452728-17.3893433,69.3993835"/>
	</g>
</g>
</svg>
