<?xml version="1.0" encoding="UTF-8"?>
<svg enable-background="new 0 0 670 180" version="1.1" viewBox="0 0 670 180" xml:space="preserve"
	xmlns="http://www.w3.org/2000/svg"
	xmlns:xlink="http://www.w3.org/1999/xlink">
	<style type="text/css">
	.st0{clip-path:url(#bd);}
	
		.st1{clip-path:url(#aj);fill:none;stroke:#000000;stroke-width:1.26;stroke-linecap:round;stroke-linejoin:round;stroke-miterlimit:10;}
	.st2{clip-path:url(#y);fill:url(#s);}
	
		.st3{clip-path:url(#q);fill:none;stroke:#000000;stroke-width:1.26;stroke-linecap:round;stroke-linejoin:round;stroke-miterlimit:10;}
	.st4{clip-path:url(#bw);fill:url(#bv);}
	
		.st5{clip-path:url(#bt);fill:none;stroke:#000000;stroke-width:1.26;stroke-linecap:round;stroke-linejoin:round;stroke-miterlimit:10;}
	.st6{clip-path:url(#br);fill:url(#bq);}
	
		.st7{clip-path:url(#bo);fill:none;stroke:#000000;stroke-width:1.26;stroke-linecap:round;stroke-linejoin:round;stroke-miterlimit:10;}
	.st8{clip-path:url(#bl);fill:url(#SVGID_22_);}
	
		.st9{clip-path:url(#bj);fill:none;stroke:#000000;stroke-width:1.26;stroke-linecap:round;stroke-linejoin:round;stroke-miterlimit:10;}
	.st10{clip-path:url(#bh);fill:url(#bg);}
	
		.st11{clip-path:url(#be);fill:none;stroke:#000000;stroke-width:1.26;stroke-linecap:round;stroke-linejoin:round;stroke-miterlimit:10;}
	.st12{clip-path:url(#bb);fill:url(#ba);}
	
		.st13{clip-path:url(#ay);fill:none;stroke:#000000;stroke-width:1.26;stroke-linecap:round;stroke-linejoin:round;stroke-miterlimit:10;}
	.st14{clip-path:url(#aw);fill:url(#av);}
	
		.st15{clip-path:url(#at);fill:none;stroke:#000000;stroke-width:1.26;stroke-linecap:round;stroke-linejoin:round;stroke-miterlimit:10;}
	.st16{clip-path:url(#aq);fill:none;stroke:#000000;stroke-width:0.9;stroke-miterlimit:10;}
	.st17{clip-path:url(#ao);fill:url(#an);}
	.st18{clip-path:url(#al);fill:none;stroke:#000000;stroke-width:0.9;stroke-miterlimit:10;}
	.st19{opacity:0.32;}
	.st20{fill:none;stroke:#0000FF;stroke-width:1.26;stroke-linecap:round;stroke-linejoin:round;stroke-miterlimit:10;}
	.st21{clip-path:url(#ak);fill:none;stroke:#0000FF;stroke-miterlimit:10;}
	.st22{clip-path:url(#ai);fill:none;stroke:#0000FF;stroke-miterlimit:10;}
	.st23{clip-path:url(#ah);fill:none;stroke:#0000FF;stroke-miterlimit:10;}
	.st24{clip-path:url(#ag);fill:none;stroke:#0000FF;stroke-miterlimit:10;}
	.st25{clip-path:url(#af);fill:none;stroke:#0000FF;stroke-miterlimit:10;}
	.st26{clip-path:url(#ae);fill:none;stroke:#0000FF;stroke-miterlimit:10;}
	.st27{fill:none;stroke:#0000FF;stroke-width:0.9;stroke-miterlimit:10;}
	.st28{clip-path:url(#ac);fill:none;stroke:#0000FF;stroke-miterlimit:10;}
	.st29{fill:none;stroke:#ED1C24;stroke-width:1.26;stroke-linecap:round;stroke-linejoin:round;stroke-miterlimit:10;}
	.st30{clip-path:url(#ab);fill:none;stroke:#ED1C24;stroke-miterlimit:10;}
	.st31{clip-path:url(#aa);fill:none;stroke:#ED1C24;stroke-miterlimit:10;}
	.st32{clip-path:url(#z);fill:none;stroke:#ED1C24;stroke-miterlimit:10;}
	.st33{clip-path:url(#x);fill:none;stroke:#ED1C24;stroke-miterlimit:10;}
	.st34{clip-path:url(#w);fill:none;stroke:#ED1C24;stroke-miterlimit:10;}
	.st35{clip-path:url(#v);fill:none;stroke:#ED1C24;stroke-miterlimit:10;}
	.st36{clip-path:url(#u);fill:none;stroke:#ED1C24;stroke-miterlimit:10;}
	.st37{fill:none;stroke:#ED1C24;stroke-width:0.9;stroke-miterlimit:10;}
	.st38{clip-path:url(#t);fill:none;stroke:#ED1C24;stroke-miterlimit:10;}
	</style>

	<path d="m49.977 122.58h-2.6328v-35.464c-0.033203-5.3013-1.1953-9.2437-3.4863-11.83-2.291-2.585-5.9404-3.8779-10.945-3.8779-5.7861 0-10.516 2.5527-14.188 7.6582-2.1777 3.0581-3.624 6.4399-4.3389 10.147v33.366h-2.6821v-52.832h2.6821v12.5c1.7871-4.2969 4.3389-7.6172 7.6543-9.9609s6.9883-3.5156 11.02-3.5156c4.4199 0 8.0361 0.97656 10.848 2.9297 2.8105 1.9531 4.6562 5.1436 5.5342 9.5703 1.5596-3.8086 4.0947-6.8438 7.6064-9.1064 3.5098-2.2622 7.4424-3.3936 11.799-3.3936 5.6875 0 9.9219 1.6113 12.701 4.834 2.7783 3.2227 4.1836 8.0566 4.2168 14.502v34.473h-2.6328v-34.245c0-5.7886-1.1621-10.073-3.4863-12.854-2.3242-2.7803-5.9727-4.1382-10.945-4.0732-6.4043 0.097656-11.475 2.6504-15.213 7.6582-2.1445 2.8945-3.3145 5.6919-3.5098 8.3911v35.123z"/>
	<path d="m120.72 123.56c-4.2598 0-8.168-1.1475-11.727-3.4424s-6.3467-5.4443-8.3613-9.4482c-2.0156-4.0039-3.0234-8.4473-3.0234-13.33v-2.1973c0-4.8828 0.97461-9.3584 2.9258-13.428 1.9502-4.0688 4.6309-7.2427 8.0449-9.5215 3.4121-2.2783 7.1338-3.418 11.164-3.418 5.8828 0 10.694 2.0996 14.433 6.2988 3.7373 4.1992 5.6064 9.7168 5.6064 16.553v2.7832h-39.541v2.8755c0 4.2891 0.90234 8.2617 2.7061 11.917s4.29 6.5225 7.46 8.6021c3.1689 2.0801 6.6064 3.1191 10.312 3.1191 3.541 0 6.5566-0.58984 9.043-1.77 2.4873-1.1802 4.6895-2.999 6.6074-5.4565l1.8525 1.3184c-3.9336 5.6968-9.7686 8.5449-17.503 8.5449zm-0.97656-52.148c-5.1348 0-9.4902 1.9126-13.066 5.7373-3.5762 3.8252-5.6719 8.6997-6.2891 14.624h36.762v-0.63477c0-3.5806-0.75586-6.9092-2.2666-9.9854-1.5117-3.0762-3.5928-5.4688-6.2412-7.1777-2.6494-1.709-5.6152-2.5635-8.8984-2.5635z"/>
	<path d="m155.34 122.58h-2.6328v-75h2.6328v75z"/>
	<path d="m171.92 53.248c0-0.74854 0.25977-1.3916 0.78027-1.9287 0.51953-0.53711 1.1533-0.80566 1.9014-0.80566 0.74707 0 1.3896 0.26855 1.9258 0.80566s0.80469 1.1802 0.80469 1.9287c0 0.74902-0.26855 1.3838-0.80469 1.9043-0.53613 0.521-1.1787 0.78125-1.9258 0.78125-0.74805 0-1.3818-0.26025-1.9014-0.78125-0.52051-0.52051-0.78027-1.1553-0.78027-1.9043zm3.998 69.336h-2.6328v-52.832h2.6328v52.832z"/>
	<path d="m203.61 94.019-0.097656 0.097656-7.6543 6.5918v21.875h-2.6328v-75h2.6328v50.244l6.1914-5.8594 23.988-22.217h3.7539l-24.23 22.51 25.742 30.322h-3.4121l-24.281-28.564z"/>
	<path d="m258.46 123.56c-4.2598 0-8.168-1.1475-11.727-3.4424s-6.3477-5.4443-8.3613-9.4482c-2.0156-4.0039-3.0234-8.4473-3.0234-13.33v-2.1973c0-4.8828 0.97461-9.3584 2.9258-13.428 1.9492-4.0688 4.6309-7.2427 8.0449-9.5215 3.4121-2.2783 7.1348-3.418 11.164-3.418 5.8828 0 10.695 2.0996 14.432 6.2988 3.7383 4.1992 5.6074 9.7168 5.6074 16.553v2.7832h-39.541v2.8755c0 4.2891 0.90234 8.2617 2.707 11.917 1.8027 3.6553 4.2891 6.5225 7.459 8.6021 3.1699 2.0801 6.6055 3.1191 10.312 3.1191 3.541 0 6.5566-0.58984 9.043-1.77s4.6895-2.999 6.6074-5.4565l1.8516 1.3184c-3.9316 5.6968-9.7676 8.5449-17.502 8.5449zm-0.97656-52.148c-5.1348 0-9.4902 1.9126-13.066 5.7373-3.5762 3.8252-5.6719 8.6997-6.2891 14.624h36.762v-0.63477c0-3.5806-0.75586-6.9092-2.2676-9.9854-1.5098-3.0762-3.5918-5.4688-6.2402-7.1777s-5.6152-2.5635-8.8984-2.5635z"/>
	<path d="m307.7 120.92c4.7773 0 8.7188-1.2695 11.824-3.8086 3.1035-2.5391 4.8008-6.0547 5.0938-10.547h2.6328c-0.25977 5.1108-2.2266 9.2207-5.8984 12.329-3.6738 3.1089-8.2246 4.6631-13.652 4.6631-6.5996 0-11.84-2.3926-15.725-7.1777s-5.8262-11.279-5.8262-19.482v-1.7578c0-8.0078 1.9414-14.404 5.8262-19.189s9.0938-7.1777 15.627-7.1777c5.5898 0 10.207 1.6768 13.848 5.0293 3.6387 3.353 5.5742 7.8125 5.8008 13.379h-2.6328c-0.22656-4.7524-1.8926-8.5693-4.998-11.45-3.1035-2.8809-7.1094-4.3213-12.018-4.3213-5.8828 0-10.49 2.124-13.822 6.3721s-4.998 10.148-4.998 17.7v1.709c0 7.3896 1.6816 13.192 5.0469 17.407 3.3633 4.2158 7.9883 6.3232 13.871 6.3232z"/>
	<path d="m343.1 82.056c1.7227-4.1016 4.2578-7.3403 7.6055-9.7168 3.3477-2.376 7.0527-3.5645 11.117-3.5645 5.6562 0 9.8555 1.6035 12.604 4.8096 2.7461 3.2065 4.1348 8.0488 4.168 14.526v34.473h-2.6328v-34.538c-0.033203-5.6577-1.1875-9.8447-3.4609-12.561-2.2754-2.7153-5.8848-4.0732-10.824-4.0732-4.5508 0-8.4922 1.6182-11.824 4.854-3.332 3.2363-5.582 7.4062-6.752 12.512v33.806h-2.6328v-75h2.6328v34.473z"/>
	<path d="m429.2 122.58c-0.65039-2.2461-0.97461-5.4688-0.97461-9.668-2.0801 3.3857-4.9238 6.0059-8.5332 7.8613-3.6074 1.8555-7.6875 2.7832-12.236 2.7832-4.877 0-8.8008-1.3262-11.775-3.9795-2.9746-2.6528-4.4609-6.1113-4.4609-10.376 0-4.8501 2.1855-8.7319 6.5566-11.646 4.373-2.9131 10.182-4.4023 17.432-4.4678h13.018v-7.7148c0-4.4268-1.3887-7.8613-4.168-10.303s-6.7539-3.6621-11.922-3.6621c-4.8105 0-8.8242 1.2373-12.043 3.7109-3.2168 2.4741-4.8262 5.5342-4.8262 9.1797l-2.6328-0.097656c0-4.2969 1.8848-7.9424 5.6562-10.938 3.7695-2.9946 8.3848-4.4922 13.846-4.4922 5.6875 0 10.207 1.4243 13.555 4.2725 3.3477 2.8486 5.0703 6.8604 5.168 12.036v25.244c0 5.7944 0.45508 9.7334 1.3652 11.816v0.43945h-3.0234zm-21.744-1.6602c4.9395 0 9.1895-1.1064 12.75-3.3203 3.5586-2.2134 6.2324-5.3223 8.0195-9.3262v-12.549h-12.189c-7.541 0-13.311 1.4976-17.309 4.4922-3.25 2.4414-4.875 5.4854-4.875 9.1309 0 3.2227 1.2832 5.957 3.8516 8.2031 2.5664 2.2461 5.8184 3.3691 9.752 3.3691z"/>
	<path d="m450.46 82.056c1.7227-4.1016 4.2578-7.3403 7.6055-9.7168 3.3477-2.376 7.0527-3.5645 11.117-3.5645 5.6562 0 9.8555 1.6035 12.604 4.8096 2.7461 3.2065 4.1348 8.0488 4.168 14.526v34.473h-2.6328v-34.538c-0.033203-5.6577-1.1875-9.8447-3.4609-12.561-2.2754-2.7153-5.8848-4.0732-10.824-4.0732-4.5508 0-8.4922 1.6182-11.824 4.854-3.332 3.2363-5.582 7.4062-6.752 12.512v33.806h-2.6328v-52.832h2.6328v12.305z"/>

	<defs>
		<rect id="bn" x="490" width="180" height="180"/>
	</defs>
	<clipPath id="bd">
		<use xlink:href="#bn"/>
	</clipPath>
	<g class="st0">
		<defs>
			<rect id="as" x="490" width="180" height="180"/>
		</defs>
		<clipPath id="aj">
			<use xlink:href="#as"/>
		</clipPath>
		<path class="st1" d="m630.43 38.753c-0.20935 0.12718-19.225 33.807-21.719 38.107"/>
		<path class="st1" d="m630.24 38.559c-11.271 11.751-22.506 23.043-33.861 34.791"/>
		<path class="st1" d="m630.21 38.592c-5.4795 3.2584-37.25 22.608-38.24 23.302"/>
		<path class="st1" d="m530.34 141.67c3.4894-2.1699 6.8194-4.1499 10.419-6.3099 4.86-3.06 9.27-5.67 14.13-8.64 4.77-2.88 8.8948-5.5976 13.5-8.37"/>
	</g>
	<g class="st0">
		<defs>
			<path id="ad" d="m530.02 141.4 21.454-37.814c-6.1e-5 0-6.1e-5 -9.16e-5 -6.1e-5 -9.16e-5 -7.1824 12.627-14.346 25.169-21.454 37.815"/>
		</defs>
		<clipPath id="y">
			<use xlink:href="#ad"/>
		</clipPath>

		<radialGradient id="s" cx="-943.57" cy="20.703" r=".09" gradientTransform="matrix(170.51 0 0 -171.51 161432 3673.2)" gradientUnits="userSpaceOnUse">
			<stop stop-color="#CBA32A" offset="0"/>
			<stop stop-color="#CDA32C" offset=".054396"/>
			<stop stop-color="#D6A537" offset=".51319"/>
			<stop stop-color="#D9A63B" offset="1"/>
		</radialGradient>
		<rect class="st2" x="530.02" y="103.59" width="21.454" height="37.815"/>
	</g>
	<g class="st0">
		<defs>
			<rect id="r" x="490" width="180" height="180"/>
		</defs>
		<clipPath id="q">
			<use xlink:href="#r"/>
		</clipPath>
		<path class="st3" d="m551.47 103.59c-7.1824 12.627-14.346 25.169-21.454 37.815l21.454-37.814c-6.1e-5 0-6.1e-5 -9.92e-5 -6.1e-5 -9.92e-5z"/>
		<path class="st3" d="m549 77.309c-3.6517-6.4791-7.0718-12.869-10.762-19.529-0.98999-1.89-1.89-3.6-2.97-5.4-0.53998-0.99-1.17-1.98-1.71-3.06-1.8-3.42-3.69-6.57-5.3842-9.8621"/>
	</g>
	<g class="st0">
		<defs>
			<path id="bx" d="m568.63 60.056-4.8791-2.5051c1.6192 0.83466 3.2435 1.6692 4.8791 2.5051m-4.8791-2.5051c-5.9279-3.0559-11.786-6.1109-17.865-9.2213-0.78943-0.38512-1.5703-0.77005-2.3469-1.1569l20.212 10.378zm-20.212-10.378-6.6389-3.4089c2.2293 1.1783 4.415 2.3009 6.6389 3.4089m-6.6389-3.4089c-0.63074-0.33327-1.2646-0.67096-1.9043-1.0142-0.3512-0.17559-0.72388-0.35118-1.097-0.52686l3.0013 1.5411zm-4.1543-2.0942c0.36884 0.18441 0.76123 0.36882 1.153 0.55314l-2.33-1.1963c0.38794 0.21609 0.77942 0.43263 1.1769 0.64314m-1.1769-0.64314c-1.1049-0.6156-2.1804-1.2278-3.2836-1.6861l3.2836 1.6861z"/>
		</defs>
		<clipPath id="bw">
			<use xlink:href="#bx"/>
		</clipPath>

		<radialGradient id="bv" cx="-944.24" cy="16.735" r=".09" gradientTransform="matrix(178.16 0 0 -178.16 168775 3031.2)" gradientUnits="userSpaceOnUse">
			<stop stop-color="#CBA32A" offset="0"/>
			<stop stop-color="#CDA32C" offset=".054396"/>
			<stop stop-color="#D6A537" offset=".51319"/>
			<stop stop-color="#D9A63B" offset="1"/>
		</radialGradient>
		<rect class="st4" x="528.29" y="39.341" width="40.345" height="20.716"/>
	</g>
	<g class="st0">
		<defs>
			<rect id="bu" x="490" width="180" height="180"/>
		</defs>
		<clipPath id="bt">
			<use xlink:href="#bu"/>
		</clipPath>
		<path class="st5" d="m568.63 60.056c-7.6241-3.8965-15.004-7.7665-22.744-11.726-3.69-1.8-7.2-3.6-10.89-5.58-0.72003-0.36-1.53-0.72-2.25-1.08-1.53-0.81-2.97-1.71-4.4605-2.3292"/>
	</g>
	<g class="st0">
		<defs>
			<path id="bs" d="m536.98 48.06c0.24951 0.19962 0.47144 0.39915 0.69629 0.59877l-9.1242-8.8736c2.7579 2.7848 5.5479 5.3948 8.4279 8.2748"/>
		</defs>
		<clipPath id="br">
			<use xlink:href="#bs"/>
		</clipPath>

		<radialGradient id="bq" cx="-944.95" cy="18.438" r=".09" gradientTransform="matrix(210.86 0 0 -210.86 199795 3946.3)" gradientUnits="userSpaceOnUse">
			<stop stop-color="#CBA32A" offset="0"/>
			<stop stop-color="#CDA32C" offset=".054396"/>
			<stop stop-color="#D6A537" offset=".51319"/>
			<stop stop-color="#D9A63B" offset="1"/>
		</radialGradient>
		<rect class="st6" x="528.55" y="39.785" width="9.1242" height="8.8735"/>
	</g>
	<g class="st0">
		<defs>
			<rect id="bp" x="490" width="180" height="180"/>
		</defs>
		<clipPath id="bo">
			<use xlink:href="#bp"/>
		</clipPath>
		<path class="st7" d="m528.55 39.785c2.7581 2.7848 5.548 5.3948 8.428 8.2748 0.24945 0.19962 0.47144 0.39915 0.69623 0.59877l-9.1243-8.8736z"/>
	</g>
	<g class="st0">
		<defs>
			<path id="bm" d="m562.6 72.895c0.0090332-0.0071106 0.018616-0.013771 0.028442-0.020164-8.0687-7.8907-24.768-24.055-24.949-24.216l24.921 24.236z"/>
		</defs>
		<clipPath id="bl">
			<use xlink:href="#bm"/>
		</clipPath>
		<rect class="st8" x="537.68" y="48.659" width="24.949" height="24.236"/>
	</g>
	<g class="st0">
		<defs>
			<rect id="bk" x="490" width="180" height="180"/>
		</defs>
		<clipPath id="bj">
			<use xlink:href="#bk"/>
		</clipPath>
		<path class="st9" d="m562.63 72.874c-8.0686-7.8907-24.768-24.055-24.949-24.216l24.921 24.236c0.0090942-0.0071182 0.018616-0.013779 0.028442-0.020172z"/>
		<path class="st9" d="m611.29 102.86c5.1594 9.638 10.379 18.998 15.689 28.808 1.8 3.24 3.51 6.39 5.2828 9.5334"/>
	</g>
	<g class="st0">
		<defs>
			<path id="bi" d="m594.67 108.57 37.08 32.643-37.07-32.67c-0.0032348 0.0090866-0.0063476 0.018089-0.010254 0.027"/>
		</defs>
		<clipPath id="bh">
			<use xlink:href="#bi"/>
		</clipPath>

		<radialGradient id="bg" cx="-948.97" cy="23.683" r=".09" gradientTransform="matrix(527.51 0 0 -421.08 501228 10113)" gradientUnits="userSpaceOnUse">
			<stop stop-color="#CBA32A" offset="0"/>
			<stop stop-color="#CDA32C" offset=".054396"/>
			<stop stop-color="#D6A537" offset=".51319"/>
			<stop stop-color="#D9A63B" offset="1"/>
		</radialGradient>
		<rect class="st10" x="594.67" y="108.54" width="37.08" height="32.67"/>
	</g>
	<g class="st0">
		<defs>
			<rect id="bf" x="490" width="180" height="180"/>
		</defs>
		<clipPath id="be">
			<use xlink:href="#bf"/>
		</clipPath>
		<path class="st11" d="m594.68 108.54c-0.0032349 0.0090866-0.0064087 0.018097-0.010254 0.027l37.08 32.643-37.07-32.67z"/>
	</g>
	<g class="st0">
		<defs>
			<path id="bc" d="m631.75 141.75-40.5-22.14 40.5 22.14z"/>
		</defs>
		<clipPath id="bb">
			<use xlink:href="#bc"/>
		</clipPath>

		<radialGradient id="ba" cx="-949.09" cy="23.884" r=".09" gradientTransform="matrix(455.07 0 0 -462.71 432541 11195)" gradientUnits="userSpaceOnUse">
			<stop stop-color="#CBA32A" offset="0"/>
			<stop stop-color="#CDA32C" offset=".054396"/>
			<stop stop-color="#D6A537" offset=".51319"/>
			<stop stop-color="#D9A63B" offset="1"/>
		</radialGradient>
		<rect class="st12" x="591.25" y="119.61" width="40.5" height="22.14"/>
	</g>
	<g class="st0">
		<defs>
			<rect id="az" x="490" width="180" height="180"/>
		</defs>
		<clipPath id="ay">
			<use xlink:href="#az"/>
		</clipPath>
		<line class="st13" x1="631.75" x2="591.25" y1="141.75" y2="119.61"/>
	</g>
	<g class="st0">
		<defs>
			<path id="ax" d="m530.05 141.39 35.73-33.39-35.73 33.39z"/>
		</defs>
		<clipPath id="aw">
			<use xlink:href="#ax"/>
		</clipPath>

		<radialGradient id="av" cx="-951.02" cy="23.715" r=".09" gradientTransform="matrix(-508.08 0 0 -430.53 -482662 10351)" gradientUnits="userSpaceOnUse">
			<stop stop-color="#CBA32A" offset="0"/>
			<stop stop-color="#CDA32C" offset=".054396"/>
			<stop stop-color="#D6A537" offset=".51319"/>
			<stop stop-color="#D9A63B" offset="1"/>
		</radialGradient>
		<rect class="st14" x="530.05" y="108" width="35.73" height="33.39"/>
	</g>
	<g class="st0">
		<defs>
			<rect id="au" x="490" width="180" height="180"/>
		</defs>
		<clipPath id="at">
			<use xlink:href="#au"/>
		</clipPath>
		<line class="st15" x1="565.78" x2="530.05" y1="108" y2="141.39"/>
	</g>
	<g class="st0">
		<defs>
			<rect id="ar" x="490" width="180" height="180"/>
		</defs>
		<clipPath id="aq">
			<use xlink:href="#ar"/>
		</clipPath>
		<path class="st16" d="m651.67 89.457-57-16.197s-0.046326-0.023308-0.10584-0.053284"/>
		<line class="st16" x1="652.72" x2="651.76" y1="89.82" y2="89.547"/>
		<path class="st16" d="m652.63 90.18c-8.6302 2.6526-57.976 17.546-58.391 17.671"/>
		<line class="st16" x1="598" x2="652.72" y1="89.82" y2="90"/>
		<path class="st16" d="m563.62 97.38c-0.022034 0.8353 0.065064 1.2687 0.18756 1.7448 0.79919 3.1058 1.5203 6.0852 1.9703 8.8752"/>
		<path class="st16" d="m507.5 89.909c19.548-5.7847 58.435-17.523 58.548-17.729"/>
		<path class="st16" d="m551.65 103.41c2.0357 0.59751 12.947 4.1153 14.49 4.59"/>
		<path class="st16" d="m507.5 90.073c7.698 2.2674 43.248 13.067 43.878 13.293"/>
		<line class="st16" x1="562" x2="508" y1="90" y2="90.09"/>
		<path class="st16" d="m580.32 161.84c0.67499-2.8091 16.965-66.079 17.164-67.509"/>
		<path class="st16" d="m579.91 161.91c-5.8416-22.657-11.571-44.832-17.37-67.59"/>
		<line class="st16" x1="580.09" x2="580.09" y1="110.61" y2="161.91"/>
		<line class="st16" x1="580.09" x2="580.09" y1="108.35" y2="111.28"/>
		<path class="st16" d="m569.29 59.49c-0.93353 3.4794-1.8525 6.9631-2.7685 10.448-0.91022 3.4626-1.8178 6.926-2.7342 10.387-0.51923 1.9609-1.283 5.5292-1.3373 5.7156"/>
		<path class="st16" d="m591.35 61.275c-0.87329-3.4015-11.144-44.078-11.164-44.143-3.6559 14.423-7.3801 28.788-11.083 43.165"/>
		<path class="st16" d="m597.46 85.68c-0.77753-3.2638-1.3624-5.8365-2.1991-9.086-0.84222-3.271-1.6934-6.5379-2.5082-9.8159-0.4566-1.8373-0.89911-3.6786-1.4043-5.5034"/>
	</g>
	<g class="st0">
		<defs>
			<path id="ap" d="m580.09 72.18v-54.54 54.54z"/>
		</defs>
		<clipPath id="ao">
			<use xlink:href="#ap"/>
		</clipPath>

		<radialGradient id="an" cx="-946.54" cy="17.901" r=".09" gradientTransform="matrix(214.25 0 0 -214.25 203378 3880.3)" gradientUnits="userSpaceOnUse">
			<stop stop-color="#CBA32A" offset="0"/>
			<stop stop-color="#D1AA36" offset=".24155"/>
			<stop stop-color="#D7B241" offset=".60928"/>
			<stop stop-color="#D9B445" offset="1"/>
		</radialGradient>
		<polygon class="st17" points="580.09 17.64 580.09 17.64 580.09 72.18"/>
	</g>
	<g class="st0">
		<defs>
			<rect id="am" x="490" width="180" height="180"/>
		</defs>
		<clipPath id="al">
			<use xlink:href="#am"/>
		</clipPath>
		<line class="st18" x1="580.09" x2="580.09" y1="17.64" y2="72.18"/>
		<path class="st18" d="m565.54 79.275c-2.2256 2.9954-3.5424 6.7063-3.5424 10.725 0 9.9411 8.0588 18 18 18 9.9411 0 18-8.0589 18-18s-8.0589-18-18-18c-5.9227 0-11.177 2.8605-14.458 7.2752"/>
	</g>

	<g class="st19">
		<path class="st20" d="m636.43 38.753c-0.20935 0.12718-19.225 33.807-21.719 38.107"/>
		<path class="st20" d="m636.24 38.559c-11.271 11.751-22.506 23.043-33.861 34.791"/>
		<path class="st20" d="m636.21 38.592c-5.4795 3.2584-37.25 22.608-38.24 23.302"/>
		<path class="st20" d="m536.34 141.67c3.4894-2.1699 6.8194-4.1499 10.419-6.3099 4.86-3.06 9.27-5.67 14.13-8.64 4.77-2.88 8.8948-5.5976 13.5-8.37"/>

		<defs>
			<path id="p" d="m536.02 141.4 21.454-37.814c-6.1e-5 0-6.1e-5 -9.16e-5 -6.1e-5 -9.16e-5 -7.1824 12.627-14.346 25.169-21.454 37.815"/>
		</defs>
		<clipPath id="ak">
			<use xlink:href="#p"/>
		</clipPath>
		<rect class="st21" x="536.02" y="103.59" width="21.454" height="37.815"/>
		<use fill="none" stroke="#0000FF" stroke-miterlimit="10" xlink:href="#p"/>

		<path class="st20" d="m557.47 103.59c-7.1824 12.627-14.346 25.169-21.454 37.815l21.454-37.814c-6.1e-5 0-6.1e-5 -9.92e-5 -6.1e-5 -9.92e-5z"/>
		<path class="st20" d="m555 77.309c-3.6517-6.4791-7.0718-12.869-10.762-19.529-0.98999-1.89-1.89-3.6-2.97-5.4-0.53998-0.99-1.17-1.98-1.71-3.06-1.8-3.42-3.69-6.57-5.3842-9.8621"/>

		<defs>
			<path id="o" d="m574.63 60.056-4.8791-2.5051c1.6192 0.83466 3.2435 1.6692 4.8791 2.5051m-4.8791-2.5051c-5.9279-3.0559-11.786-6.1109-17.865-9.2213-0.78943-0.38512-1.5703-0.77005-2.3469-1.1569l20.212 10.378zm-20.212-10.378-6.6389-3.4089c2.2293 1.1783 4.415 2.3009 6.6389 3.4089m-6.6389-3.4089c-0.63074-0.33327-1.2646-0.67096-1.9043-1.0142-0.3512-0.17559-0.72388-0.35118-1.097-0.52686l3.0013 1.5411zm-4.1543-2.0942c0.36884 0.18441 0.76123 0.36882 1.153 0.55314l-2.33-1.1963c0.38794 0.21609 0.77942 0.43263 1.1769 0.64314m-1.1769-0.64314c-1.1049-0.6156-2.1804-1.2278-3.2836-1.6861l3.2836 1.6861z"/>
		</defs>
		<clipPath id="ai">
			<use xlink:href="#o"/>
		</clipPath>
		<rect class="st22" x="534.29" y="39.341" width="40.345" height="20.716"/>
		<use fill="none" stroke="#0000FF" stroke-miterlimit="10" xlink:href="#o"/>

		<path class="st20" d="m574.63 60.056c-7.6241-3.8965-15.004-7.7665-22.744-11.726-3.69-1.8-7.2-3.6-10.89-5.58-0.72003-0.36-1.53-0.72-2.25-1.08-1.53-0.81-2.97-1.71-4.4605-2.3292"/>

		<defs>
			<path id="n" d="m542.98 48.06c0.24951 0.19962 0.47144 0.39915 0.69629 0.59877l-9.1242-8.8736c2.7579 2.7848 5.5479 5.3948 8.4279 8.2748"/>
		</defs>
		<clipPath id="ah">
			<use xlink:href="#n"/>
		</clipPath>
		<rect class="st23" x="534.55" y="39.785" width="9.1242" height="8.8735"/>
		<use fill="none" stroke="#0000FF" stroke-miterlimit="10" xlink:href="#n"/>

		<path class="st20" d="m534.55 39.785c2.7581 2.7848 5.548 5.3948 8.428 8.2748 0.24945 0.19962 0.47144 0.39915 0.69623 0.59877l-9.1243-8.8736z"/>

		<defs>
			<path id="m" d="m568.6 72.895c0.0090332-0.0071106 0.018616-0.013771 0.028442-0.020164-8.0687-7.8907-24.768-24.055-24.949-24.216l24.921 24.236z"/>
		</defs>
		<clipPath id="ag">
			<use xlink:href="#m"/>
		</clipPath>
		<rect class="st24" x="543.68" y="48.659" width="24.949" height="24.236"/>
		<use fill="none" stroke="#0000FF" stroke-miterlimit="10" xlink:href="#m"/>

		<path class="st20" d="m568.63 72.874c-8.0686-7.8907-24.768-24.055-24.949-24.216l24.921 24.236c0.0090942-0.0071182 0.018616-0.013779 0.028442-0.020172z"/>
		<path class="st20" d="m617.29 102.86c5.1594 9.638 10.379 18.998 15.689 28.808 1.8 3.24 3.51 6.39 5.2828 9.5334"/>

		<defs>
			<path id="l" d="m600.67 108.57 37.08 32.643-37.07-32.67c-0.0032348 0.0090866-0.0063476 0.018089-0.010254 0.027"/>
		</defs>
		<clipPath id="af">
			<use xlink:href="#l"/>
		</clipPath>
		<rect class="st25" x="600.67" y="108.54" width="37.08" height="32.67"/>
		<use fill="none" stroke="#0000FF" stroke-miterlimit="10" xlink:href="#l"/>

		<path class="st20" d="m600.68 108.54c-0.0032349 0.0090866-0.0064087 0.018097-0.010254 0.027l37.08 32.643-37.07-32.67z"/>

		<defs>
			<path id="k" d="m637.75 141.75-40.5-22.14 40.5 22.14z"/>
		</defs>
		<clipPath id="ae">
			<use xlink:href="#k"/>
		</clipPath>
		<rect class="st26" x="597.25" y="119.61" width="40.5" height="22.14"/>
		<use fill="none" stroke="#0000FF" stroke-miterlimit="10" xlink:href="#k"/>

		<line class="st20" x1="637.75" x2="597.25" y1="141.75" y2="119.61"/>

		<defs>
			<path id="j" d="m536.05 141.39 35.73-33.39-35.73 33.39z"/>
		</defs>
		<clipPath>
			<use xlink:href="#j"/>
		</clipPath>
		<use fill="none" stroke="#0000FF" stroke-miterlimit="10" xlink:href="#j"/>

		<line class="st20" x1="571.78" x2="536.05" y1="108" y2="141.39"/>

		<path class="st27" d="m657.67 89.457-57-16.197s-0.046326-0.023308-0.10584-0.053284"/>
		<line class="st27" x1="658.72" x2="657.76" y1="89.82" y2="89.547"/>
		<path class="st27" d="m658.63 90.18c-8.6302 2.6526-57.976 17.546-58.391 17.671"/>
		<line class="st27" x1="604" x2="658.72" y1="89.82" y2="90"/>
		<path class="st27" d="m569.62 97.38c-0.022034 0.8353 0.065064 1.2687 0.18756 1.7448 0.79919 3.1058 1.5203 6.0852 1.9703 8.8752"/>
		<path class="st27" d="m513.5 89.909c19.548-5.7847 58.435-17.523 58.548-17.729"/>
		<path class="st27" d="m557.65 103.41c2.0357 0.59751 12.947 4.1153 14.49 4.59"/>
		<path class="st27" d="m513.5 90.073c7.6979 2.2674 43.248 13.067 43.878 13.293"/>
		<line class="st27" x1="568" x2="514" y1="90" y2="90.09"/>
		<path class="st27" d="m586.32 161.84c0.67499-2.8091 16.965-66.079 17.164-67.509"/>
		<path class="st27" d="m585.91 161.91c-5.8416-22.657-11.571-44.832-17.37-67.59"/>
		<line class="st27" x1="586.09" x2="586.09" y1="110.61" y2="161.91"/>
		<line class="st27" x1="586.09" x2="586.09" y1="108.35" y2="111.28"/>
		<path class="st27" d="m575.29 59.49c-0.93353 3.4794-1.8525 6.9631-2.7685 10.448-0.91022 3.4626-1.8178 6.926-2.7342 10.387-0.51923 1.9609-1.283 5.5292-1.3373 5.7156"/>
		<path class="st27" d="m597.35 61.275c-0.87329-3.4015-11.144-44.078-11.164-44.143-3.6559 14.423-7.3801 28.788-11.083 43.165"/>
		<path class="st27" d="m603.46 85.68c-0.77753-3.2638-1.3624-5.8365-2.1991-9.086-0.84222-3.271-1.6934-6.5379-2.5082-9.8159-0.4566-1.8373-0.89911-3.6786-1.4043-5.5034"/>

		<defs>
			<path id="i" d="m586.09 72.18v-54.54 54.54z"/>
		</defs>
		<clipPath id="ac">
			<use xlink:href="#i"/>
		</clipPath>
		<polygon class="st28" points="586.09 17.64 586.09 17.64 586.09 72.18"/>
		<use fill="none" stroke="#0000FF" stroke-miterlimit="10" xlink:href="#i"/>

		<line class="st27" x1="586.09" x2="586.09" y1="17.64" y2="72.18"/>
		<path class="st27" d="m571.54 79.275c-2.2256 2.9954-3.5424 6.7063-3.5424 10.725 0 9.9411 8.0588 18 18 18 9.9411 0 18-8.0589 18-18s-8.0589-18-18-18c-5.9227 0-11.177 2.8605-14.458 7.2752"/>
	</g>
	<g class="st19">

		<path class="st29" d="m621.91 39.093c-0.20935 0.12718-19.225 33.807-21.719 38.107"/>
		<path class="st29" d="m621.72 38.899c-11.271 11.751-22.506 23.043-33.861 34.791"/>
		<path class="st29" d="m621.69 38.932c-5.4795 3.2584-37.249 22.608-38.24 23.302"/>
		<path class="st29" d="m521.82 142.01c3.4894-2.1699 6.8194-4.1499 10.419-6.3099 4.86-3.06 9.27-5.67 14.13-8.64 4.77-2.88 8.8948-5.5976 13.5-8.37"/>

		<defs>
			<path id="h" d="m521.5 141.74 21.454-37.814c-1.221e-4 0-1.221e-4 -8.39e-5 -1.221e-4 -8.39e-5 -7.1824 12.627-14.346 25.169-21.454 37.815"/>
		</defs>
		<clipPath id="ab">
			<use xlink:href="#h"/>
		</clipPath>
		<rect class="st30" x="521.5" y="103.93" width="21.454" height="37.815"/>
		<use fill="none" stroke="#ED1C24" stroke-miterlimit="10" xlink:href="#h"/>

		<path class="st29" d="m542.95 103.93c-7.1824 12.627-14.346 25.169-21.454 37.815l21.454-37.814c-1.22e-4 1e-7 -1.22e-4 -9.15e-5 -1.22e-4 -9.15e-5z"/>
		<path class="st29" d="m540.48 77.649c-3.6517-6.4791-7.0717-12.869-10.762-19.529-0.98999-1.89-1.89-3.6-2.97-5.4-0.53998-0.99-1.17-1.98-1.71-3.06-1.8-3.42-3.69-6.57-5.3843-9.8621"/>

		<defs>
			<path id="g" d="m560.11 60.396-4.8791-2.5051c1.6192 0.83466 3.2434 1.6692 4.8791 2.5051m-4.8791-2.5051c-5.928-3.0559-11.786-6.1109-17.865-9.2213-0.78937-0.38511-1.5703-0.77004-2.3469-1.1569l20.212 10.378zm-20.212-10.378-6.6388-3.4089c2.2292 1.1783 4.4149 2.3009 6.6388 3.4089m-6.6388-3.4089c-0.63074-0.33327-1.2647-0.67096-1.9044-1.0142-0.35114-0.17559-0.72388-0.35118-1.097-0.52686l3.0013 1.5411zm-4.1544-2.0942c0.36884 0.18441 0.76123 0.36882 1.153 0.55314l-2.3299-1.1963c0.38788 0.21609 0.77936 0.43263 1.1769 0.64314m-1.1769-0.64314c-1.1049-0.6156-2.1804-1.2278-3.2836-1.6861l3.2836 1.6861z"/>
		</defs>
		<clipPath id="aa">
			<use xlink:href="#g"/>
		</clipPath>
		<rect class="st31" x="519.77" y="39.681" width="40.345" height="20.716"/>
		<use fill="none" stroke="#ED1C24" stroke-miterlimit="10" xlink:href="#g"/>

		<path class="st29" d="m560.11 60.396c-7.6241-3.8965-15.004-7.7665-22.744-11.726-3.69-1.8-7.2-3.6-10.89-5.58-0.72003-0.36-1.53-0.72-2.25-1.08-1.53-0.81-2.97-1.71-4.4605-2.3292"/>

		<defs>
			<path id="f" d="m528.46 48.4c0.24945 0.19962 0.47137 0.39915 0.69623 0.59876l-9.1242-8.8735c2.7579 2.7848 5.548 5.3948 8.428 8.2748"/>
		</defs>
		<clipPath id="z">
			<use xlink:href="#f"/>
		</clipPath>
		<rect class="st32" x="520.03" y="40.125" width="9.1242" height="8.8735"/>
		<use fill="none" stroke="#ED1C24" stroke-miterlimit="10" xlink:href="#f"/>

		<path class="st29" d="m520.03 40.125c2.7581 2.7848 5.548 5.3948 8.428 8.2748 0.24951 0.19962 0.47144 0.39916 0.69623 0.59878l-9.1243-8.8736z"/>

		<defs>
			<path id="e" d="m554.08 73.235c0.0089722-0.007103 0.018616-0.013763 0.028442-0.020157-8.0687-7.8907-24.768-24.055-24.949-24.216l24.921 24.236z"/>
		</defs>
		<clipPath id="x">
			<use xlink:href="#e"/>
		</clipPath>
		<rect class="st33" x="529.16" y="48.999" width="24.949" height="24.236"/>
		<use fill="none" stroke="#ED1C24" stroke-miterlimit="10" xlink:href="#e"/>

		<path class="st29" d="m554.11 73.214c-8.0685-7.8907-24.768-24.055-24.949-24.216l24.921 24.236c0.0090943-0.0071182 0.018677-0.013771 0.028442-0.020172z"/>
		<path class="st29" d="m602.77 103.2c5.1594 9.638 10.379 18.998 15.689 28.808 1.8 3.24 3.51 6.39 5.2828 9.5333"/>

		<defs>
			<path id="d" d="m586.15 108.91 37.08 32.643-37.07-32.67c-0.0032349 0.0090942-0.0064088 0.018089-0.010254 0.027"/>
		</defs>
		<clipPath id="w">
			<use xlink:href="#d"/>
		</clipPath>
		<rect class="st34" x="586.15" y="108.88" width="37.08" height="32.67"/>
		<use fill="none" stroke="#ED1C24" stroke-miterlimit="10" xlink:href="#d"/>

		<path class="st29" d="m586.16 108.88c-0.0032349 0.0090942-0.0064087 0.018097-0.010254 0.027008l37.08 32.643-37.07-32.67z"/>

		<defs>
			<path id="c" d="m623.23 142.09-40.5-22.14 40.5 22.14z"/>
		</defs>
		<clipPath id="v">
			<use xlink:href="#c"/>
		</clipPath>
		<rect class="st35" x="582.73" y="119.95" width="40.5" height="22.14"/>
		<use fill="none" stroke="#ED1C24" stroke-miterlimit="10" xlink:href="#c"/>

		<line class="st29" x1="623.23" x2="582.73" y1="142.09" y2="119.95"/>

		<defs>
			<path id="b" d="m521.53 141.73 35.73-33.39-35.73 33.39z"/>
		</defs>
		<clipPath id="u">
			<use xlink:href="#b"/>
		</clipPath>
		<rect class="st36" x="521.53" y="108.34" width="35.73" height="33.39"/>
		<use fill="none" stroke="#ED1C24" stroke-miterlimit="10" xlink:href="#b"/>


		<line class="st29" x1="557.26" x2="521.53" y1="108.34" y2="141.73"/>

		<path class="st37" d="m643.15 89.797-57-16.197s-0.046387-0.023315-0.10584-0.053284"/>
		<line class="st37" x1="644.2" x2="643.24" y1="90.16" y2="89.887"/>
		<path class="st37" d="m644.11 90.52c-8.6302 2.6526-57.976 17.546-58.391 17.671"/>
		<line class="st37" x1="589.48" x2="644.2" y1="90.16" y2="90.34"/>
		<path class="st37" d="m555.1 97.72c-0.022095 0.83529 0.065064 1.2687 0.18756 1.7448 0.79919 3.1058 1.5203 6.0852 1.9703 8.8752"/>
		<path class="st37" d="m498.98 90.249c19.548-5.7847 58.435-17.523 58.548-17.729"/>
		<path class="st37" d="m543.13 103.75c2.0357 0.59751 12.947 4.1153 14.49 4.59"/>
		<path class="st37" d="m498.98 90.413c7.698 2.2674 43.248 13.067 43.878 13.293"/>
		<line class="st37" x1="553.48" x2="499.48" y1="90.34" y2="90.43"/>
		<path class="st37" d="m571.79 162.18c0.67499-2.8091 16.965-66.079 17.164-67.509"/>
		<path class="st37" d="m571.39 162.25c-5.8417-22.657-11.571-44.832-17.37-67.59"/>
		<line class="st37" x1="571.57" x2="571.57" y1="110.95" y2="162.25"/>
		<line class="st37" x1="571.57" x2="571.57" y1="108.69" y2="111.62"/>
		<path class="st37" d="m560.77 59.83c-0.93359 3.4794-1.8525 6.9631-2.7685 10.448-0.91028 3.4626-1.8178 6.926-2.7342 10.387-0.51923 1.9609-1.283 5.5292-1.3373 5.7156"/>
		<path class="st37" d="m582.83 61.615c-0.87329-3.4015-11.144-44.078-11.164-44.143-3.6559 14.423-7.3801 28.788-11.083 43.165"/>
		<path class="st37" d="m588.94 86.02c-0.77753-3.2638-1.3624-5.8365-2.1991-9.086-0.84222-3.271-1.6934-6.5379-2.5082-9.8159-0.4566-1.8373-0.89911-3.6786-1.4043-5.5034"/>

		<defs>
			<path id="a" d="m571.57 72.52v-54.54 54.54z"/>
		</defs>
		<clipPath id="t">
			<use xlink:href="#a"/>
		</clipPath>
		<polygon class="st38" points="571.57 17.98 571.57 17.98 571.57 72.52"/>
		<use fill="none" stroke="#ED1C24" stroke-miterlimit="10" xlink:href="#a"/>

		<line class="st37" x1="571.57" x2="571.57" y1="17.98" y2="72.52"/>
		<path class="st37" d="m557.02 79.615c-2.2256 2.9954-3.5424 6.7063-3.5424 10.725 0 9.9411 8.0588 18 18 18 9.9411 0 18-8.0589 18-18s-8.0589-18-18-18c-5.9227-1e-7 -11.177 2.8605-14.458 7.2752"/>
	</g>
</svg>