<?xml version="1.0" encoding="utf-8"?>
<!-- Generator: Adobe Illustrator 24.1.1, SVG Export Plug-In . SVG Version: 6.00 Build 0)  -->
<svg version="1.1" id="katman_1" xmlns="http://www.w3.org/2000/svg" xmlns:xlink="http://www.w3.org/1999/xlink" x="0px" y="0px"
	 viewBox="0 0 670 180" style="enable-background:new 0 0 670 180;" xml:space="preserve">
<style type="text/css">
	.st0{clip-path:url(#SVGID_2_);}
	
		.st1{clip-path:url(#SVGID_4_);fill:none;stroke:#000000;stroke-width:1.26;stroke-linecap:round;stroke-linejoin:round;stroke-miterlimit:10;}
	.st2{clip-path:url(#SVGID_6_);fill:url(#SVGID_7_);}
	
		.st3{clip-path:url(#SVGID_9_);fill:none;stroke:#000000;stroke-width:1.26;stroke-linecap:round;stroke-linejoin:round;stroke-miterlimit:10;}
	.st4{clip-path:url(#SVGID_11_);fill:url(#SVGID_12_);}
	
		.st5{clip-path:url(#SVGID_14_);fill:none;stroke:#000000;stroke-width:1.26;stroke-linecap:round;stroke-linejoin:round;stroke-miterlimit:10;}
	.st6{clip-path:url(#SVGID_16_);fill:url(#SVGID_17_);}
	
		.st7{clip-path:url(#SVGID_19_);fill:none;stroke:#000000;stroke-width:1.26;stroke-linecap:round;stroke-linejoin:round;stroke-miterlimit:10;}
	.st8{clip-path:url(#SVGID_21_);fill:url(#SVGID_22_);}
	
		.st9{clip-path:url(#SVGID_24_);fill:none;stroke:#000000;stroke-width:1.26;stroke-linecap:round;stroke-linejoin:round;stroke-miterlimit:10;}
	.st10{clip-path:url(#SVGID_26_);fill:url(#SVGID_27_);}
	
		.st11{clip-path:url(#SVGID_29_);fill:none;stroke:#000000;stroke-width:1.26;stroke-linecap:round;stroke-linejoin:round;stroke-miterlimit:10;}
	.st12{clip-path:url(#SVGID_31_);fill:url(#SVGID_32_);}
	
		.st13{clip-path:url(#SVGID_34_);fill:none;stroke:#000000;stroke-width:1.26;stroke-linecap:round;stroke-linejoin:round;stroke-miterlimit:10;}
	.st14{clip-path:url(#SVGID_36_);fill:url(#SVGID_37_);}
	
		.st15{clip-path:url(#SVGID_39_);fill:none;stroke:#000000;stroke-width:1.26;stroke-linecap:round;stroke-linejoin:round;stroke-miterlimit:10;}
	.st16{clip-path:url(#SVGID_41_);fill:none;stroke:#000000;stroke-width:0.9;stroke-miterlimit:10;}
	.st17{clip-path:url(#SVGID_43_);fill:url(#SVGID_44_);}
	.st18{clip-path:url(#SVGID_46_);fill:none;stroke:#000000;stroke-width:0.9;stroke-miterlimit:10;}
	.st19{opacity:0.32;}
	.st20{fill:none;stroke:#0000FF;stroke-width:1.26;stroke-linecap:round;stroke-linejoin:round;stroke-miterlimit:10;}
	.st21{clip-path:url(#SVGID_48_);fill:none;stroke:#0000FF;stroke-miterlimit:10;}
	.st22{clip-path:url(#SVGID_50_);fill:none;stroke:#0000FF;stroke-miterlimit:10;}
	.st23{clip-path:url(#SVGID_52_);fill:none;stroke:#0000FF;stroke-miterlimit:10;}
	.st24{clip-path:url(#SVGID_54_);fill:none;stroke:#0000FF;stroke-miterlimit:10;}
	.st25{clip-path:url(#SVGID_56_);fill:none;stroke:#0000FF;stroke-miterlimit:10;}
	.st26{clip-path:url(#SVGID_58_);fill:none;stroke:#0000FF;stroke-miterlimit:10;}
	.st27{fill:none;stroke:#0000FF;stroke-width:0.9;stroke-miterlimit:10;}
	.st28{clip-path:url(#SVGID_62_);fill:none;stroke:#0000FF;stroke-miterlimit:10;}
	.st29{fill:none;stroke:#ED1C24;stroke-width:1.26;stroke-linecap:round;stroke-linejoin:round;stroke-miterlimit:10;}
	.st30{clip-path:url(#SVGID_64_);fill:none;stroke:#ED1C24;stroke-miterlimit:10;}
	.st31{clip-path:url(#SVGID_66_);fill:none;stroke:#ED1C24;stroke-miterlimit:10;}
	.st32{clip-path:url(#SVGID_68_);fill:none;stroke:#ED1C24;stroke-miterlimit:10;}
	.st33{clip-path:url(#SVGID_70_);fill:none;stroke:#ED1C24;stroke-miterlimit:10;}
	.st34{clip-path:url(#SVGID_72_);fill:none;stroke:#ED1C24;stroke-miterlimit:10;}
	.st35{clip-path:url(#SVGID_74_);fill:none;stroke:#ED1C24;stroke-miterlimit:10;}
	.st36{clip-path:url(#SVGID_76_);fill:none;stroke:#ED1C24;stroke-miterlimit:10;}
	.st37{fill:none;stroke:#ED1C24;stroke-width:0.9;stroke-miterlimit:10;}
	.st38{clip-path:url(#SVGID_78_);fill:none;stroke:#ED1C24;stroke-miterlimit:10;}
</style>
<g>
	<path d="M49.9765625,122.5834961H47.34375V87.1191406c-0.0332031-5.3012695-1.1953125-9.2436523-3.4863281-11.8295898
		c-2.2910156-2.5849609-5.9404297-3.8779297-10.9453125-3.8779297c-5.7861328,0-10.515625,2.5527344-14.1884766,7.6582031
		c-2.1777344,3.0581055-3.6240234,6.4399414-4.3388672,10.1474609v33.3662109h-2.6821289V69.7514648h2.6821289v12.5
		c1.7871094-4.296875,4.3388672-7.6171875,7.6542969-9.9609375s6.9882813-3.515625,11.0195313-3.515625
		c4.4199219,0,8.0361328,0.9765625,10.8476563,2.9296875c2.8105469,1.953125,4.65625,5.1435547,5.5341797,9.5703125
		C51,77.4663086,53.5351563,74.4311523,57.046875,72.168457c3.5097656-2.262207,7.4423828-3.3935547,11.7988281-3.3935547
		c5.6875,0,9.921875,1.6113281,12.7011719,4.8339844c2.7783203,3.2226563,4.1835938,8.0566406,4.2167969,14.5019531v34.4726563
		h-2.6328125V88.3388672c0-5.7885742-1.1621094-10.0727539-3.4863281-12.8540039
		c-2.3242188-2.7802734-5.9726563-4.1381836-10.9453125-4.0732422c-6.4042969,0.0976563-11.4746094,2.6503906-15.2128906,7.6582031
		c-2.1445313,2.8945313-3.3144531,5.6918945-3.5097656,8.3911133V122.5834961z"/>
	<path d="M120.7226563,123.5600586c-4.2597656,0-8.1679688-1.1474609-11.7265625-3.4423828
		s-6.3466797-5.4443359-8.3613281-9.4482422c-2.015625-4.0039063-3.0234375-8.4472656-3.0234375-13.3300781v-2.1972656
		c0-4.8828125,0.9746094-9.3583984,2.9257813-13.4277344c1.9501953-4.0688477,4.6308594-7.2426758,8.0449219-9.5214844
		c3.4121094-2.2783203,7.1337891-3.4179688,11.1640625-3.4179688c5.8828125,0,10.6943359,2.0996094,14.4326172,6.2988281
		c3.7373047,4.1992188,5.6064453,9.7167969,5.6064453,16.5527344v2.7832031h-39.5410156v2.8754883
		c0,4.2890625,0.9023438,8.2617188,2.7060547,11.9169922s4.2900391,6.5224609,7.4599609,8.6020508
		c3.1689453,2.0800781,6.6064453,3.1191406,10.3125,3.1191406c3.5410156,0,6.5566406-0.5898438,9.0429688-1.7700195
		c2.4873047-1.1801758,4.6894531-2.9990234,6.6074219-5.456543l1.8525391,1.3183594
		C134.2919922,120.7119141,128.4570313,123.5600586,120.7226563,123.5600586z M119.7460938,71.4116211
		c-5.1347656,0-9.4902344,1.9125977-13.0664063,5.7373047c-3.5761719,3.8251953-5.671875,8.699707-6.2890625,14.6240234h36.7617188
		v-0.6347656c0-3.5805664-0.7558594-6.9091797-2.2666016-9.9853516c-1.5117188-3.0761719-3.5927734-5.46875-6.2412109-7.1777344
		C125.9951172,72.2661133,123.0292969,71.4116211,119.7460938,71.4116211z"/>
	<path d="M155.3388672,122.5834961h-2.6328125v-75h2.6328125V122.5834961z"/>
	<path d="M171.9160156,53.2475586c0-0.7485352,0.2597656-1.3916016,0.7802734-1.9287109
		c0.5195313-0.5371094,1.1533203-0.8056641,1.9013672-0.8056641c0.7470703,0,1.3896484,0.2685547,1.9257813,0.8056641
		s0.8046875,1.1801758,0.8046875,1.9287109c0,0.7490234-0.2685547,1.3837891-0.8046875,1.9042969
		c-0.5361328,0.5209961-1.1787109,0.78125-1.9257813,0.78125c-0.7480469,0-1.3818359-0.2602539-1.9013672-0.78125
		C172.1757813,54.6313477,171.9160156,53.996582,171.9160156,53.2475586z M175.9140625,122.5834961H173.28125V69.7514648h2.6328125
		V122.5834961z"/>
	<path d="M203.6074219,94.019043l-0.0976563,0.0976563l-7.6542969,6.5917969v21.875h-2.6328125v-75h2.6328125v50.2441406
		l6.1914063-5.859375l23.9882813-22.2167969h3.7539063l-24.2304688,22.5097656l25.7421875,30.3222656h-3.4121094
		L203.6074219,94.019043z"/>
	<path d="M258.4589844,123.5600586c-4.2597656,0-8.1679688-1.1474609-11.7265625-3.4423828
		s-6.3476563-5.4443359-8.3613281-9.4482422c-2.015625-4.0039063-3.0234375-8.4472656-3.0234375-13.3300781v-2.1972656
		c0-4.8828125,0.9746094-9.3583984,2.9257813-13.4277344c1.9492188-4.0688477,4.6308594-7.2426758,8.0449219-9.5214844
		c3.4121094-2.2783203,7.1347656-3.4179688,11.1640625-3.4179688c5.8828125,0,10.6953125,2.0996094,14.4316406,6.2988281
		c3.7382813,4.1992188,5.6074219,9.7167969,5.6074219,16.5527344v2.7832031h-39.5410156v2.8754883
		c0,4.2890625,0.9023438,8.2617188,2.7070313,11.9169922c1.8027344,3.6552734,4.2890625,6.5224609,7.4589844,8.6020508
		c3.1699219,2.0800781,6.6054688,3.1191406,10.3125,3.1191406c3.5410156,0,6.5566406-0.5898438,9.0429688-1.7700195
		s4.6894531-2.9990234,6.6074219-5.456543l1.8515625,1.3183594
		C272.0292969,120.7119141,266.1933594,123.5600586,258.4589844,123.5600586z M257.4824219,71.4116211
		c-5.1347656,0-9.4902344,1.9125977-13.0664063,5.7373047c-3.5761719,3.8251953-5.671875,8.699707-6.2890625,14.6240234h36.7617188
		v-0.6347656c0-3.5805664-0.7558594-6.9091797-2.2675781-9.9853516c-1.5097656-3.0761719-3.5917969-5.46875-6.2402344-7.1777344
		S260.765625,71.4116211,257.4824219,71.4116211z"/>
	<path d="M307.703125,120.9233398c4.7773438,0,8.71875-1.2695313,11.8242188-3.8085938
		c3.1035156-2.5390625,4.8007813-6.0546875,5.09375-10.546875h2.6328125
		c-0.2597656,5.1108398-2.2265625,9.2207031-5.8984375,12.3291016c-3.6738281,3.1088867-8.2246094,4.6630859-13.6523438,4.6630859
		c-6.5996094,0-11.8398438-2.3925781-15.7246094-7.1777344s-5.8261719-11.2792969-5.8261719-19.4824219v-1.7578125
		c0-8.0078125,1.9414063-14.4042969,5.8261719-19.1894531s9.09375-7.1777344,15.6269531-7.1777344
		c5.5898438,0,10.2070313,1.6767578,13.8476563,5.0292969c3.6386719,3.3530273,5.5742188,7.8125,5.8007813,13.3789063h-2.6328125
		c-0.2265625-4.7524414-1.8925781-8.5693359-4.9980469-11.4501953c-3.1035156-2.8808594-7.109375-4.3212891-12.0175781-4.3212891
		c-5.8828125,0-10.4902344,2.1240234-13.8222656,6.3720703s-4.9980469,10.1484375-4.9980469,17.7001953v1.7089844
		c0,7.3896484,1.6816406,13.1918945,5.046875,17.4072266C297.1953125,118.815918,301.8203125,120.9233398,307.703125,120.9233398z"
		/>
	<path d="M343.0996094,82.0561523c1.7226563-4.1015625,4.2578125-7.340332,7.6054688-9.7167969
		c3.3476563-2.3759766,7.0527344-3.5644531,11.1171875-3.5644531c5.65625,0,9.8554688,1.6035156,12.6035156,4.8095703
		c2.7460938,3.206543,4.1347656,8.0488281,4.1679688,14.5263672v34.4726563h-2.6328125V88.0458984
		c-0.0332031-5.6577148-1.1875-9.8447266-3.4609375-12.5610352c-2.2753906-2.715332-5.8847656-4.0732422-10.8242188-4.0732422
		c-4.5507813,0-8.4921875,1.6181641-11.8242188,4.8540039c-3.3320313,3.2363281-5.5820313,7.40625-6.7519531,12.512207v33.8056641
		h-2.6328125v-75h2.6328125V82.0561523z"/>
	<path d="M429.203125,122.5834961c-0.6503906-2.2460938-0.9746094-5.46875-0.9746094-9.6679688
		c-2.0800781,3.3857422-4.9238281,6.0058594-8.5332031,7.8613281c-3.6074219,1.8554688-7.6875,2.7832031-12.2363281,2.7832031
		c-4.8769531,0-8.8007813-1.3261719-11.7753906-3.9794922c-2.9746094-2.652832-4.4609375-6.1113281-4.4609375-10.3759766
		c0-4.8500977,2.1855469-8.7319336,6.5566406-11.6455078c4.3730469-2.9130859,10.1816406-4.4023438,17.4316406-4.4677734h13.0175781
		v-7.7148438c0-4.4267578-1.3886719-7.8613281-4.1679688-10.3027344s-6.7539063-3.6621094-11.921875-3.6621094
		c-4.8105469,0-8.8242188,1.2373047-12.0429688,3.7109375c-3.2167969,2.4741211-4.8261719,5.5341797-4.8261719,9.1796875
		l-2.6328125-0.0976563c0-4.296875,1.8847656-7.9423828,5.65625-10.9375
		c3.7695313-2.9946289,8.3847656-4.4921875,13.8457031-4.4921875c5.6875,0,10.2070313,1.4243164,13.5546875,4.2724609
		c3.3476563,2.8486328,5.0703125,6.8603516,5.1679688,12.0361328v25.2441406c0,5.7944336,0.4550781,9.7333984,1.3652344,11.8164063
		v0.4394531H429.203125z M407.4589844,120.9233398c4.9394531,0,9.1894531-1.1064453,12.75-3.3203125
		c3.5585938-2.2133789,6.2324219-5.3222656,8.0195313-9.3261719V95.7280273h-12.1894531
		c-7.5410156,0-13.3105469,1.4975586-17.3085938,4.4921875c-3.25,2.4414063-4.875,5.4853516-4.875,9.1308594
		c0,3.2226563,1.2832031,5.9570313,3.8515625,8.203125C400.2734375,119.800293,403.5253906,120.9233398,407.4589844,120.9233398z"/>
	<path d="M450.4609375,82.0561523c1.7226563-4.1015625,4.2578125-7.340332,7.6054688-9.7167969
		c3.3476563-2.3759766,7.0527344-3.5644531,11.1171875-3.5644531c5.65625,0,9.8554688,1.6035156,12.6035156,4.8095703
		c2.7460938,3.206543,4.1347656,8.0488281,4.1679688,14.5263672v34.4726563h-2.6328125V88.0458984
		c-0.0332031-5.6577148-1.1875-9.8447266-3.4609375-12.5610352c-2.2753906-2.715332-5.8847656-4.0732422-10.8242188-4.0732422
		c-4.5507813,0-8.4921875,1.6181641-11.8242188,4.8540039c-3.3320313,3.2363281-5.5820313,7.40625-6.7519531,12.512207v33.8056641
		h-2.6328125V69.7514648h2.6328125V82.0561523z"/>
</g>
<g>
	<g>
		<defs>
			<rect id="SVGID_1_" x="490" width="180" height="180"/>
		</defs>
		<clipPath id="SVGID_2_">
			<use xlink:href="#SVGID_1_"  style="overflow:visible;"/>
		</clipPath>
		<g class="st0">
			<defs>
				<rect id="SVGID_3_" x="490" width="180" height="180"/>
			</defs>
			<clipPath id="SVGID_4_">
				<use xlink:href="#SVGID_3_"  style="overflow:visible;"/>
			</clipPath>
			<path class="st1" d="M630.4293823,38.7528229c-0.2093506,0.1271782-19.2246704,33.8068008-21.7193604,38.1071777"/>
			<path class="st1" d="M630.2408447,38.5594177c-11.270813,11.7505836-22.5057983,23.0429802-33.8608398,34.7905807"/>
			<path class="st1" d="M630.2094727,38.5916748c-5.4794922,3.2583694-37.2495117,22.6083679-38.2398682,23.3021774"/>
			<path class="st1" d="M530.3405762,141.6699371c3.4893799-2.1698914,6.819397-4.1499023,10.4193726-6.309906
				c4.8599854-3.0599976,9.2700195-5.6699982,14.1300049-8.6399918c4.7700195-2.8799973,8.8947754-5.597641,13.5-8.3700027"/>
		</g>
		<g class="st0">
			<defs>
				<path id="SVGID_5_" d="M530.0160522,141.4045715l21.4539185-37.8144836c-0.000061,0-0.000061-0.0000916-0.000061-0.0000916
					C544.2874756,116.2166443,537.1242676,128.7591248,530.0160522,141.4045715"/>
			</defs>
			<clipPath id="SVGID_6_">
				<use xlink:href="#SVGID_5_"  style="overflow:visible;"/>
			</clipPath>
			
				<radialGradient id="SVGID_7_" cx="-943.5714722" cy="20.7031155" r="0.09" gradientTransform="matrix(170.5132751 0 0 -171.5063324 161432.234375 3673.1604004)" gradientUnits="userSpaceOnUse">
				<stop  offset="0" style="stop-color:#CBA32A"/>
				<stop  offset="0.0543961" style="stop-color:#CDA32C"/>
				<stop  offset="0.5131866" style="stop-color:#D6A537"/>
				<stop  offset="1" style="stop-color:#D9A63B"/>
			</radialGradient>
			<rect x="530.0160522" y="103.590004" class="st2" width="21.453928" height="37.8145752"/>
		</g>
		<g class="st0">
			<defs>
				<rect id="SVGID_8_" x="490" width="180" height="180"/>
			</defs>
			<clipPath id="SVGID_9_">
				<use xlink:href="#SVGID_8_"  style="overflow:visible;"/>
			</clipPath>
			<path class="st3" d="M551.4699097,103.5899963c-7.1824341,12.6266479-14.3456421,25.1691437-21.4537354,37.8145752
				l21.4537964-37.814476C551.4699097,103.5900955,551.4699097,103.5899963,551.4699097,103.5899963z"/>
			<path class="st3" d="M549.00177,77.3091202c-3.6517334-6.4790955-7.0717773-12.8690948-10.7617798-19.5290985
				c-0.9899902-1.8899994-1.8899536-3.5999985-2.9699707-5.4000015c-0.539978-0.9899979-1.1699829-1.9799995-1.710022-3.0599976
				c-1.7999878-3.420002-3.6900024-6.5699997-5.3842163-9.8621101"/>
		</g>
		<g class="st0">
			<defs>
				<path id="SVGID_10_" d="M568.6341553,60.0564537l-4.8790894-2.505146
					C565.3742676,58.3859711,566.9985352,59.2205391,568.6341553,60.0564537 M563.7550659,57.5513077
					c-5.9279175-3.0558586-11.7855835-6.1109009-17.8650513-9.2213058
					c-0.7894287-0.3851166-1.5703125-0.7700462-2.3468628-1.1568604L563.7550659,57.5513077z M543.5431519,47.1731415
					l-6.638855-3.4089279C539.133606,44.9424858,541.3192749,46.0651474,543.5431519,47.1731415 M536.9042969,43.7642136
					C536.2735596,43.4309425,535.6396484,43.0932579,535,42.75c-0.3511963-0.1755943-0.723877-0.3511772-1.0969849-0.5268593
					L536.9042969,43.7642136z M532.75,41.6699982c0.3688354,0.1844063,0.7612305,0.368824,1.1530151,0.5531425l-2.3299561-1.1962814
					C531.9609985,41.2429504,532.352478,41.4594917,532.75,41.6699982 M531.5730591,41.0268593
					c-1.1048584-0.6155968-2.1803589-1.2277756-3.2835693-1.686058L531.5730591,41.0268593z"/>
			</defs>
			<clipPath id="SVGID_11_">
				<use xlink:href="#SVGID_10_"  style="overflow:visible;"/>
			</clipPath>
			
				<radialGradient id="SVGID_12_" cx="-944.2409058" cy="16.7350216" r="0.0900001" gradientTransform="matrix(178.1603546 0 0 -178.1603546 168774.75 3031.2160645)" gradientUnits="userSpaceOnUse">
				<stop  offset="0" style="stop-color:#CBA32A"/>
				<stop  offset="0.0543961" style="stop-color:#CDA32C"/>
				<stop  offset="0.5131866" style="stop-color:#D6A537"/>
				<stop  offset="1" style="stop-color:#D9A63B"/>
			</radialGradient>
			<rect x="528.2894897" y="39.3408089" class="st4" width="40.3446579" height="20.7156448"/>
		</g>
		<g class="st0">
			<defs>
				<rect id="SVGID_13_" x="490" width="180" height="180"/>
			</defs>
			<clipPath id="SVGID_14_">
				<use xlink:href="#SVGID_13_"  style="overflow:visible;"/>
			</clipPath>
			<path class="st5" d="M568.6340942,60.0564995c-7.6240845-3.8964539-15.0040894-7.7664566-22.7440796-11.7264557
				c-3.6900024-1.7999992-7.1999512-3.5999985-10.8899536-5.579998c-0.7200317-0.3600006-1.5300293-0.7200012-2.25-1.0800018
				c-1.5300293-0.8100014-2.9700317-1.7099991-4.4605103-2.3292007"/>
		</g>
		<g class="st0">
			<defs>
				<path id="SVGID_15_" d="M536.9799805,48.0600014c0.2495117,0.1996193,0.4714355,0.3991547,0.6962891,0.5987663
					l-9.1242065-8.8735504C531.3099976,42.5699997,534.0999756,45.1800003,536.9799805,48.0600014"/>
			</defs>
			<clipPath id="SVGID_16_">
				<use xlink:href="#SVGID_15_"  style="overflow:visible;"/>
			</clipPath>
			
				<radialGradient id="SVGID_17_" cx="-944.9466553" cy="18.438427" r="0.09" gradientTransform="matrix(210.8550568 0 0 -210.8550568 199794.578125 3946.331543)" gradientUnits="userSpaceOnUse">
				<stop  offset="0" style="stop-color:#CBA32A"/>
				<stop  offset="0.0543961" style="stop-color:#CDA32C"/>
				<stop  offset="0.5131866" style="stop-color:#D6A537"/>
				<stop  offset="1" style="stop-color:#D9A63B"/>
			</radialGradient>
			<rect x="528.552063" y="39.7852287" class="st6" width="9.1242027" height="8.8735361"/>
		</g>
		<g class="st0">
			<defs>
				<rect id="SVGID_18_" x="490" width="180" height="180"/>
			</defs>
			<clipPath id="SVGID_19_">
				<use xlink:href="#SVGID_18_"  style="overflow:visible;"/>
			</clipPath>
			<path class="st7" d="M528.552002,39.7852287c2.7580566,2.7847824,5.5480347,5.394783,8.4280396,8.2747841
				c0.2494507,0.1996193,0.4714355,0.3991547,0.696228,0.598774L528.552002,39.7852287z"/>
		</g>
		<g class="st0">
			<defs>
				<path id="SVGID_20_" d="M562.5968628,72.8945084c0.0090332-0.0071106,0.0186157-0.0137711,0.0284424-0.0201645
					c-8.0686646-7.8907394-24.7683716-24.0551872-24.9490356-24.2155762L562.5968628,72.8945084z"/>
			</defs>
			<clipPath id="SVGID_21_">
				<use xlink:href="#SVGID_20_"  style="overflow:visible;"/>
			</clipPath>
			
				<radialGradient id="SVGID_22_" cx="-944.9466553" cy="18.438427" r="0.09" gradientTransform="matrix(210.8550568 0 0 -210.8550568 199794.578125 3946.331543)" gradientUnits="userSpaceOnUse">
				<stop  offset="0" style="stop-color:#CBA32A"/>
				<stop  offset="0.0543961" style="stop-color:#CDA32C"/>
				<stop  offset="0.5131866" style="stop-color:#D6A537"/>
				<stop  offset="1" style="stop-color:#D9A63B"/>
			</radialGradient>
			<rect x="537.6762695" y="48.6587677" class="st8" width="24.9490776" height="24.2357521"/>
		</g>
		<g class="st0">
			<defs>
				<rect id="SVGID_23_" x="490" width="180" height="180"/>
			</defs>
			<clipPath id="SVGID_24_">
				<use xlink:href="#SVGID_23_"  style="overflow:visible;"/>
			</clipPath>
			<path class="st9" d="M562.6253052,72.8743362c-8.0686035-7.8907471-24.7683716-24.055191-24.9489746-24.21558
				l24.9205322,24.2357521C562.605957,72.8873901,562.6154785,72.8807297,562.6253052,72.8743362z"/>
			<path class="st9" d="M611.2905273,102.8619995c5.1594238,9.6380081,10.3794556,18.9980087,15.6894531,28.8079987
				c1.7999878,3.2400055,3.5100098,6.3900146,5.2828369,9.5333557"/>
		</g>
		<g class="st0">
			<defs>
				<path id="SVGID_25_" d="M594.6699829,108.5670013L631.75,141.2100067l-37.0697632-32.6700058
					C594.677002,108.5490875,594.6738892,108.5580902,594.6699829,108.5670013"/>
			</defs>
			<clipPath id="SVGID_26_">
				<use xlink:href="#SVGID_25_"  style="overflow:visible;"/>
			</clipPath>
			
				<radialGradient id="SVGID_27_" cx="-948.9729614" cy="23.6826744" r="0.09" gradientTransform="matrix(527.5148315 0 0 -421.0847168 501228.21875 10112.8808594)" gradientUnits="userSpaceOnUse">
				<stop  offset="0" style="stop-color:#CBA32A"/>
				<stop  offset="0.0543961" style="stop-color:#CDA32C"/>
				<stop  offset="0.5131866" style="stop-color:#D6A537"/>
				<stop  offset="1" style="stop-color:#D9A63B"/>
			</radialGradient>
			<rect x="594.6699829" y="108.5400009" class="st10" width="37.0800018" height="32.6699982"/>
		</g>
		<g class="st0">
			<defs>
				<rect id="SVGID_28_" x="490" width="180" height="180"/>
			</defs>
			<clipPath id="SVGID_29_">
				<use xlink:href="#SVGID_28_"  style="overflow:visible;"/>
			</clipPath>
			<path class="st11" d="M594.6802979,108.5400009c-0.0032349,0.0090866-0.0064087,0.0180969-0.0102539,0.0270004
				L631.75,141.2100067L594.6802979,108.5400009z"/>
		</g>
		<g class="st0">
			<defs>
				<path id="SVGID_30_" d="M631.75,141.75l-40.5-22.1399994L631.75,141.75z"/>
			</defs>
			<clipPath id="SVGID_31_">
				<use xlink:href="#SVGID_30_"  style="overflow:visible;"/>
			</clipPath>
			
				<radialGradient id="SVGID_32_" cx="-949.0887451" cy="23.8836803" r="0.09" gradientTransform="matrix(455.0734863 0 0 -462.7103271 432541.4375 11195.4697266)" gradientUnits="userSpaceOnUse">
				<stop  offset="0" style="stop-color:#CBA32A"/>
				<stop  offset="0.0543961" style="stop-color:#CDA32C"/>
				<stop  offset="0.5131866" style="stop-color:#D6A537"/>
				<stop  offset="1" style="stop-color:#D9A63B"/>
			</radialGradient>
			<rect x="591.25" y="119.6100082" class="st12" width="40.5" height="22.1399975"/>
		</g>
		<g class="st0">
			<defs>
				<rect id="SVGID_33_" x="490" width="180" height="180"/>
			</defs>
			<clipPath id="SVGID_34_">
				<use xlink:href="#SVGID_33_"  style="overflow:visible;"/>
			</clipPath>
			<line class="st13" x1="631.75" y1="141.75" x2="591.25" y2="119.6100006"/>
		</g>
		<g class="st0">
			<defs>
				<path id="SVGID_35_" d="M530.0499878,141.3899994L565.7800293,108L530.0499878,141.3899994z"/>
			</defs>
			<clipPath id="SVGID_36_">
				<use xlink:href="#SVGID_35_"  style="overflow:visible;"/>
			</clipPath>
			
				<radialGradient id="SVGID_37_" cx="-951.019104" cy="23.7154026" r="0.09" gradientTransform="matrix(-508.0785522 0 0 -430.5251465 -482661.53125 10350.7099609)" gradientUnits="userSpaceOnUse">
				<stop  offset="0" style="stop-color:#CBA32A"/>
				<stop  offset="0.0543961" style="stop-color:#CDA32C"/>
				<stop  offset="0.5131866" style="stop-color:#D6A537"/>
				<stop  offset="1" style="stop-color:#D9A63B"/>
			</radialGradient>
			<rect x="530.0499878" y="108" class="st14" width="35.7300034" height="33.3899994"/>
		</g>
		<g class="st0">
			<defs>
				<rect id="SVGID_38_" x="490" width="180" height="180"/>
			</defs>
			<clipPath id="SVGID_39_">
				<use xlink:href="#SVGID_38_"  style="overflow:visible;"/>
			</clipPath>
			<line class="st15" x1="565.7800293" y1="108" x2="530.0499878" y2="141.3899994"/>
		</g>
		<g class="st0">
			<defs>
				<rect id="SVGID_40_" x="490" width="180" height="180"/>
			</defs>
			<clipPath id="SVGID_41_">
				<use xlink:href="#SVGID_40_"  style="overflow:visible;"/>
			</clipPath>
			<path class="st16" d="M651.6696777,89.4570084l-56.9996948-16.1970215c0,0-0.0463257-0.0233078-0.105835-0.0532837"/>
			<line class="st16" x1="652.7199707" y1="89.8199997" x2="651.7597046" y2="89.5470352"/>
			<path class="st16" d="M652.6300049,90.1800003c-8.630188,2.6525726-57.9763184,17.5455017-58.3911133,17.670784"/>
			<line class="st16" x1="598" y1="89.8199997" x2="652.7199707" y2="90"/>
			<path class="st16" d="M563.6221313,97.3799973c-0.0220337,0.8352966,0.0650635,1.2687378,0.187561,1.7448349
				c0.7991943,3.1058121,1.5203247,6.0851669,1.9702759,8.8751678"/>
			<path class="st16" d="M507.5020447,89.9093399c19.5476379-5.7846527,58.4352112-17.5226288,58.5480042-17.7293625"/>
			<path class="st16" d="M551.6500244,103.4100037C553.68573,104.007515,564.5966797,107.5253448,566.1400146,108"/>
			<path class="st16" d="M507.5020447,90.0726395c7.6979675,2.2673798,43.2479553,13.0673752,43.8784485,13.2925491"/>
			<line class="st16" x1="562" y1="90" x2="508" y2="90.0899963"/>
			<path class="st16" d="M580.3150024,161.8390656c0.6749878-2.8090668,16.9650269-66.079071,17.1642456-67.5091705"/>
			<path class="st16" d="M579.9099731,161.9100037c-5.8416138-22.656601-11.5714722-44.8315201-17.3699951-67.590004"/>
			<line class="st16" x1="580.0900269" y1="110.6100006" x2="580.0900269" y2="161.9100037"/>
			<line class="st16" x1="580.0900269" y1="108.3501587" x2="580.0900269" y2="111.2758789"/>
			<path class="st16" d="M569.289978,59.4900017c-0.9335327,3.4794006-1.852478,6.9631233-2.7684937,10.447567
				c-0.9102173,3.4625626-1.8178101,6.926033-2.7341919,10.3868027c-0.5192261,1.9609222-1.282959,5.5291595-1.3372803,5.7156296"/>
			<path class="st16" d="M591.3484497,61.2747078c-0.873291-3.4015427-11.1442871-44.0776749-11.1635132-44.1428375
				c-3.6558838,14.4227734-7.380127,28.7877598-11.0829468,43.1648941"/>
			<path class="st16" d="M597.460022,85.6800003c-0.7775269-3.2638397-1.3623657-5.8364944-2.1990967-9.0860367
				c-0.8422241-3.2710419-1.6934204-6.5378723-2.5081787-9.8158569c-0.456604-1.8373413-0.8991089-3.6785583-1.4042969-5.5033989"/>
		</g>
		<g class="st0">
			<defs>
				<path id="SVGID_42_" d="M580.0900269,72.1800003V17.6399994V72.1800003z"/>
			</defs>
			<clipPath id="SVGID_43_">
				<use xlink:href="#SVGID_42_"  style="overflow:visible;"/>
			</clipPath>
			
				<radialGradient id="SVGID_44_" cx="-946.5352173" cy="17.9013481" r="0.09" gradientTransform="matrix(214.2533569 0 0 -214.2533569 203378.4375 3880.3339844)" gradientUnits="userSpaceOnUse">
				<stop  offset="0" style="stop-color:#CBA32A"/>
				<stop  offset="0.2415459" style="stop-color:#D1AA36"/>
				<stop  offset="0.6092848" style="stop-color:#D7B241"/>
				<stop  offset="1" style="stop-color:#D9B445"/>
			</radialGradient>
			<polygon class="st17" points="580.0900269,17.6399994 580.0900269,17.6399994 580.0900269,72.1800003 			"/>
		</g>
		<g class="st0">
			<defs>
				<rect id="SVGID_45_" x="490" width="180" height="180"/>
			</defs>
			<clipPath id="SVGID_46_">
				<use xlink:href="#SVGID_45_"  style="overflow:visible;"/>
			</clipPath>
			<line class="st18" x1="580.0900269" y1="17.6399994" x2="580.0900269" y2="72.1800003"/>
			<path class="st18" d="M565.5424194,79.2752762c-2.2255859,2.9953918-3.5423584,6.7062683-3.5423584,10.724762
				c0,9.9411316,8.0588379,18,18,18c9.9411011,0,18-8.0588684,18-18s-8.0588989-17.9999924-18-17.9999924
				C574.0773315,72.0000458,568.8227539,74.8605118,565.5424194,79.2752762"/>
		</g>
	</g>
</g>
<g class="st19">
	<g>
		<g>
			<path class="st20" d="M636.4293823,38.7528229c-0.2093506,0.1271782-19.2246704,33.8068008-21.7193604,38.1071777"/>
			<path class="st20" d="M636.2408447,38.5594177c-11.270813,11.7505836-22.5057983,23.0429802-33.8608398,34.7905807"/>
			<path class="st20" d="M636.2094727,38.5916748c-5.4794922,3.2583694-37.2495117,22.6083679-38.2398682,23.3021774"/>
			<path class="st20" d="M536.3405762,141.6699371c3.4893799-2.1698914,6.819397-4.1499023,10.4193726-6.309906
				c4.8599854-3.0599976,9.2700195-5.6699982,14.1300049-8.6399918c4.7700195-2.8799973,8.8947754-5.597641,13.5-8.3700027"/>
		</g>
		<g>
			<defs>
				<path id="SVGID_47_" d="M536.0160522,141.4045715l21.4539185-37.8144836c-0.000061,0-0.000061-0.0000916-0.000061-0.0000916
					C550.2874756,116.2166443,543.1242676,128.7591248,536.0160522,141.4045715"/>
			</defs>
			<clipPath id="SVGID_48_">
				<use xlink:href="#SVGID_47_"  style="overflow:visible;"/>
			</clipPath>
			<rect x="536.0160522" y="103.590004" class="st21" width="21.453928" height="37.8145752"/>
			<use xlink:href="#SVGID_47_"  style="overflow:visible;fill:none;stroke:#0000FF;stroke-miterlimit:10;"/>
		</g>
		<g>
			<path class="st20" d="M557.4699097,103.5899963c-7.1824341,12.6266479-14.3456421,25.1691437-21.4537354,37.8145752
				l21.4537964-37.814476C557.4699097,103.5900955,557.4699097,103.5899963,557.4699097,103.5899963z"/>
			<path class="st20" d="M555.00177,77.3091202c-3.6517334-6.4790955-7.0717773-12.8690948-10.7617798-19.5290985
				c-0.9899902-1.8899994-1.8899536-3.5999985-2.9699707-5.4000015c-0.539978-0.9899979-1.1699829-1.9799995-1.710022-3.0599976
				c-1.7999878-3.420002-3.6900024-6.5699997-5.3842163-9.8621101"/>
		</g>
		<g>
			<defs>
				<path id="SVGID_49_" d="M574.6341553,60.0564537l-4.8790894-2.505146
					C571.3742676,58.3859711,572.9985352,59.2205391,574.6341553,60.0564537 M569.7550659,57.5513077
					c-5.9279175-3.0558586-11.7855835-6.1109009-17.8650513-9.2213058
					c-0.7894287-0.3851166-1.5703125-0.7700462-2.3468628-1.1568604L569.7550659,57.5513077z M549.5431519,47.1731415
					l-6.638855-3.4089279C545.133606,44.9424858,547.3192749,46.0651474,549.5431519,47.1731415 M542.9042969,43.7642136
					C542.2735596,43.4309425,541.6396484,43.0932579,541,42.75c-0.3511963-0.1755943-0.723877-0.3511772-1.0969849-0.5268593
					L542.9042969,43.7642136z M538.75,41.6699982c0.3688354,0.1844063,0.7612305,0.368824,1.1530151,0.5531425l-2.3299561-1.1962814
					C537.9609985,41.2429504,538.352478,41.4594917,538.75,41.6699982 M537.5730591,41.0268593
					c-1.1048584-0.6155968-2.1803589-1.2277756-3.2835693-1.686058L537.5730591,41.0268593z"/>
			</defs>
			<clipPath id="SVGID_50_">
				<use xlink:href="#SVGID_49_"  style="overflow:visible;"/>
			</clipPath>
			<rect x="534.2894897" y="39.3408089" class="st22" width="40.3446579" height="20.7156448"/>
			<use xlink:href="#SVGID_49_"  style="overflow:visible;fill:none;stroke:#0000FF;stroke-miterlimit:10;"/>
		</g>
		<g>
			<path class="st20" d="M574.6340942,60.0564995c-7.6240845-3.8964539-15.0040894-7.7664566-22.7440796-11.7264557
				c-3.6900024-1.7999992-7.1999512-3.5999985-10.8899536-5.579998c-0.7200317-0.3600006-1.5300293-0.7200012-2.25-1.0800018
				c-1.5300293-0.8100014-2.9700317-1.7099991-4.4605103-2.3292007"/>
		</g>
		<g>
			<defs>
				<path id="SVGID_51_" d="M542.9799805,48.0600014c0.2495117,0.1996193,0.4714355,0.3991547,0.6962891,0.5987663
					l-9.1242065-8.8735504C537.3099976,42.5699997,540.0999756,45.1800003,542.9799805,48.0600014"/>
			</defs>
			<clipPath id="SVGID_52_">
				<use xlink:href="#SVGID_51_"  style="overflow:visible;"/>
			</clipPath>
			<rect x="534.552063" y="39.7852287" class="st23" width="9.1242027" height="8.8735361"/>
			<use xlink:href="#SVGID_51_"  style="overflow:visible;fill:none;stroke:#0000FF;stroke-miterlimit:10;"/>
		</g>
		<g>
			<path class="st20" d="M534.552002,39.7852287c2.7580566,2.7847824,5.5480347,5.394783,8.4280396,8.2747841
				c0.2494507,0.1996193,0.4714355,0.3991547,0.696228,0.598774L534.552002,39.7852287z"/>
		</g>
		<g>
			<defs>
				<path id="SVGID_53_" d="M568.5968628,72.8945084c0.0090332-0.0071106,0.0186157-0.0137711,0.0284424-0.0201645
					c-8.0686646-7.8907394-24.7683716-24.0551872-24.9490356-24.2155762L568.5968628,72.8945084z"/>
			</defs>
			<clipPath id="SVGID_54_">
				<use xlink:href="#SVGID_53_"  style="overflow:visible;"/>
			</clipPath>
			<rect x="543.6762695" y="48.6587677" class="st24" width="24.9490776" height="24.2357521"/>
			<use xlink:href="#SVGID_53_"  style="overflow:visible;fill:none;stroke:#0000FF;stroke-miterlimit:10;"/>
		</g>
		<g>
			<path class="st20" d="M568.6253052,72.8743362c-8.0686035-7.8907471-24.7683716-24.055191-24.9489746-24.21558
				l24.9205322,24.2357521C568.605957,72.8873901,568.6154785,72.8807297,568.6253052,72.8743362z"/>
			<path class="st20" d="M617.2905273,102.8619995c5.1594238,9.6380081,10.3794556,18.9980087,15.6894531,28.8079987
				c1.7999878,3.2400055,3.5100098,6.3900146,5.2828369,9.5333557"/>
		</g>
		<g>
			<defs>
				<path id="SVGID_55_" d="M600.6699829,108.5670013L637.75,141.2100067l-37.0697632-32.6700058
					C600.677002,108.5490875,600.6738892,108.5580902,600.6699829,108.5670013"/>
			</defs>
			<clipPath id="SVGID_56_">
				<use xlink:href="#SVGID_55_"  style="overflow:visible;"/>
			</clipPath>
			<rect x="600.6699829" y="108.5400009" class="st25" width="37.0800018" height="32.6699982"/>
			<use xlink:href="#SVGID_55_"  style="overflow:visible;fill:none;stroke:#0000FF;stroke-miterlimit:10;"/>
		</g>
		<g>
			<path class="st20" d="M600.6802979,108.5400009c-0.0032349,0.0090866-0.0064087,0.0180969-0.0102539,0.0270004
				L637.75,141.2100067L600.6802979,108.5400009z"/>
		</g>
		<g>
			<defs>
				<path id="SVGID_57_" d="M637.75,141.75l-40.5-22.1399994L637.75,141.75z"/>
			</defs>
			<clipPath id="SVGID_58_">
				<use xlink:href="#SVGID_57_"  style="overflow:visible;"/>
			</clipPath>
			<rect x="597.25" y="119.6100082" class="st26" width="40.5" height="22.1399975"/>
			<use xlink:href="#SVGID_57_"  style="overflow:visible;fill:none;stroke:#0000FF;stroke-miterlimit:10;"/>
		</g>
		<g>
			<line class="st20" x1="637.75" y1="141.75" x2="597.25" y2="119.6100006"/>
		</g>
		<g>
			<defs>
				<path id="SVGID_59_" d="M536.0499878,141.3899994L571.7800293,108L536.0499878,141.3899994z"/>
			</defs>
			<clipPath id="SVGID_60_">
				<use xlink:href="#SVGID_59_"  style="overflow:visible;"/>
			</clipPath>
			<use xlink:href="#SVGID_59_"  style="overflow:visible;fill:none;stroke:#0000FF;stroke-miterlimit:10;"/>
		</g>
		<g>
			<line class="st20" x1="571.7800293" y1="108" x2="536.0499878" y2="141.3899994"/>
		</g>
		<g>
			<path class="st27" d="M657.6696777,89.4570084l-56.9996948-16.1970215c0,0-0.0463257-0.0233078-0.105835-0.0532837"/>
			<line class="st27" x1="658.7199707" y1="89.8199997" x2="657.7597046" y2="89.5470352"/>
			<path class="st27" d="M658.6300049,90.1800003c-8.630188,2.6525726-57.9763184,17.5455017-58.3911133,17.670784"/>
			<line class="st27" x1="604" y1="89.8199997" x2="658.7199707" y2="90"/>
			<path class="st27" d="M569.6221313,97.3799973c-0.0220337,0.8352966,0.0650635,1.2687378,0.187561,1.7448349
				c0.7991943,3.1058121,1.5203247,6.0851669,1.9702759,8.8751678"/>
			<path class="st27" d="M513.5020752,89.9093399c19.5476074-5.7846527,58.4351807-17.5226288,58.5479736-17.7293625"/>
			<path class="st27" d="M557.6500244,103.4100037C559.68573,104.007515,570.5966797,107.5253448,572.1400146,108"/>
			<path class="st27" d="M513.5020752,90.0726395c7.697937,2.2673798,43.2479248,13.0673752,43.878418,13.2925491"/>
			<line class="st27" x1="568" y1="90" x2="514" y2="90.0899963"/>
			<path class="st27" d="M586.3150024,161.8390656c0.6749878-2.8090668,16.9650269-66.079071,17.1642456-67.5091705"/>
			<path class="st27" d="M585.9099731,161.9100037c-5.8416138-22.656601-11.5714722-44.8315201-17.3699951-67.590004"/>
			<line class="st27" x1="586.0900269" y1="110.6100006" x2="586.0900269" y2="161.9100037"/>
			<line class="st27" x1="586.0900269" y1="108.3501587" x2="586.0900269" y2="111.2758789"/>
			<path class="st27" d="M575.289978,59.4900017c-0.9335327,3.4794006-1.852478,6.9631233-2.7684937,10.447567
				c-0.9102173,3.4625626-1.8178101,6.926033-2.7341919,10.3868027c-0.5192261,1.9609222-1.282959,5.5291595-1.3372803,5.7156296"/>
			<path class="st27" d="M597.3484497,61.2747078c-0.873291-3.4015427-11.1442871-44.0776749-11.1635132-44.1428375
				c-3.6558838,14.4227734-7.380127,28.7877598-11.0829468,43.1648941"/>
			<path class="st27" d="M603.460022,85.6800003c-0.7775269-3.2638397-1.3623657-5.8364944-2.1990967-9.0860367
				c-0.8422241-3.2710419-1.6934204-6.5378723-2.5081787-9.8158569c-0.456604-1.8373413-0.8991089-3.6785583-1.4042969-5.5033989"/>
		</g>
		<g>
			<defs>
				<path id="SVGID_61_" d="M586.0900269,72.1800003V17.6399994V72.1800003z"/>
			</defs>
			<clipPath id="SVGID_62_">
				<use xlink:href="#SVGID_61_"  style="overflow:visible;"/>
			</clipPath>
			<polygon class="st28" points="586.0900269,17.6399994 586.0900269,17.6399994 586.0900269,72.1800003 			"/>
			<use xlink:href="#SVGID_61_"  style="overflow:visible;fill:none;stroke:#0000FF;stroke-miterlimit:10;"/>
		</g>
		<g>
			<line class="st27" x1="586.0900269" y1="17.6399994" x2="586.0900269" y2="72.1800003"/>
			<path class="st27" d="M571.5424194,79.2752762c-2.2255859,2.9953918-3.5423584,6.7062683-3.5423584,10.724762
				c0,9.9411316,8.0588379,18,18,18c9.9411011,0,18-8.0588684,18-18s-8.0588989-17.9999924-18-17.9999924
				C580.0773315,72.0000458,574.8227539,74.8605118,571.5424194,79.2752762"/>
		</g>
	</g>
</g>
<g class="st19">
	<g>
		<g>
			<path class="st29" d="M621.9093628,39.092823c-0.2093506,0.1271782-19.2246704,33.806797-21.7193604,38.1071739"/>
			<path class="st29" d="M621.7208252,38.8994179c-11.270813,11.7505836-22.5057373,23.0429802-33.8607788,34.7905846"/>
			<path class="st29" d="M621.6894531,38.931675c-5.4794922,3.2583694-37.2494507,22.6083679-38.2398682,23.3021774"/>
			<path class="st29" d="M521.8205566,142.0099335c3.4893799-2.1698914,6.819397-4.1499023,10.4193726-6.3098907
				c4.8600464-3.0599976,9.2700195-5.6699982,14.1300049-8.640007c4.7700195-2.8799973,8.8948364-5.5976334,13.5-8.3699951"/>
		</g>
		<g>
			<defs>
				<path id="SVGID_63_" d="M521.4960938,141.7445831l21.4539185-37.8144989c-0.0001221,0-0.0001221-0.0000839-0.0001221-0.0000839
					C535.7674561,116.5566406,528.604248,129.0991211,521.4960938,141.7445831"/>
			</defs>
			<clipPath id="SVGID_64_">
				<use xlink:href="#SVGID_63_"  style="overflow:visible;"/>
			</clipPath>
			<rect x="521.4960938" y="103.9300079" class="st30" width="21.453928" height="37.8145752"/>
			<use xlink:href="#SVGID_63_"  style="overflow:visible;fill:none;stroke:#ED1C24;stroke-miterlimit:10;"/>
		</g>
		<g>
			<path class="st29" d="M542.9498901,103.9300003c-7.1824341,12.6266403-14.3456421,25.169136-21.4537354,37.8145828
				l21.4538574-37.8144913C542.9498901,103.9300919,542.9498901,103.9300003,542.9498901,103.9300003z"/>
			<path class="st29" d="M540.4817505,77.6491241c-3.6517334-6.4791031-7.0717163-12.8691025-10.7617188-19.5291023
				c-0.9899902-1.8899994-1.8900146-3.5999985-2.9700317-5.4000015c-0.539978-0.9899979-1.1699829-1.9799995-1.7099609-3.0599976
				c-1.8000488-3.420002-3.6900024-6.5699997-5.3842773-9.8621101"/>
		</g>
		<g>
			<defs>
				<path id="SVGID_65_" d="M560.1141968,60.3964539l-4.8790894-2.505146
					C556.8543091,58.7259712,558.4785156,59.5605392,560.1141968,60.3964539 M555.2351074,57.8913078
					c-5.9279785-3.0558586-11.7855835-6.1109009-17.8651123-9.2213097
					c-0.7893677-0.3851128-1.5703125-0.7700424-2.3468628-1.1568604L555.2351074,57.8913078z M535.0231323,47.5131378
					l-6.6387939-3.4089241C530.6135864,45.282486,532.7992554,46.4051476,535.0231323,47.5131378 M528.3843384,44.1042137
					c-0.6307373-0.333271-1.2647095-0.6709557-1.9043579-1.0142136c-0.3511353-0.1755943-0.723877-0.3511772-1.0969849-0.5268593
					L528.3843384,44.1042137z M524.2299805,42.0099983c0.3688354,0.1844063,0.7612305,0.368824,1.1530151,0.5531425
					l-2.329895-1.1962814C523.440979,41.5829506,523.8324585,41.7994919,524.2299805,42.0099983 M523.0531006,41.3668594
					c-1.1048584-0.6155968-2.1803589-1.2277756-3.2835693-1.686058L523.0531006,41.3668594z"/>
			</defs>
			<clipPath id="SVGID_66_">
				<use xlink:href="#SVGID_65_"  style="overflow:visible;"/>
			</clipPath>
			<rect x="519.7695313" y="39.680809" class="st31" width="40.3446579" height="20.7156448"/>
			<use xlink:href="#SVGID_65_"  style="overflow:visible;fill:none;stroke:#ED1C24;stroke-miterlimit:10;"/>
		</g>
		<g>
			<path class="st29" d="M560.1141357,60.3964996c-7.6240845-3.8964539-15.0040894-7.7664566-22.7440796-11.7264557
				c-3.6900024-1.7999992-7.2000122-3.5999985-10.8900146-5.5800018c-0.7200317-0.3599968-1.5300293-0.7199974-2.25-1.079998
				c-1.5300293-0.8100014-2.9700317-1.7099991-4.4605103-2.3292007"/>
		</g>
		<g>
			<defs>
				<path id="SVGID_67_" d="M528.460022,48.4000015c0.2494507,0.1996193,0.4713745,0.3991547,0.696228,0.5987625
					l-9.1242065-8.8735466C522.789978,42.9099998,525.5800171,45.5200005,528.460022,48.4000015"/>
			</defs>
			<clipPath id="SVGID_68_">
				<use xlink:href="#SVGID_67_"  style="overflow:visible;"/>
			</clipPath>
			<rect x="520.0320435" y="40.1252289" class="st32" width="9.1242027" height="8.8735361"/>
			<use xlink:href="#SVGID_67_"  style="overflow:visible;fill:none;stroke:#ED1C24;stroke-miterlimit:10;"/>
		</g>
		<g>
			<path class="st29" d="M520.0319824,40.1252289c2.7580566,2.7847824,5.5480347,5.394783,8.4280396,8.2747803
				c0.2495117,0.1996231,0.4714355,0.3991585,0.696228,0.5987778L520.0319824,40.1252289z"/>
		</g>
		<g>
			<defs>
				<path id="SVGID_69_" d="M554.0769043,73.2345047c0.0089722-0.007103,0.0186157-0.0137634,0.0284424-0.0201569
					c-8.0687256-7.8907471-24.7683716-24.055191-24.9490967-24.2155838L554.0769043,73.2345047z"/>
			</defs>
			<clipPath id="SVGID_70_">
				<use xlink:href="#SVGID_69_"  style="overflow:visible;"/>
			</clipPath>
			<rect x="529.15625" y="48.998764" class="st33" width="24.9490776" height="24.2357521"/>
			<use xlink:href="#SVGID_69_"  style="overflow:visible;fill:none;stroke:#ED1C24;stroke-miterlimit:10;"/>
		</g>
		<g>
			<path class="st29" d="M554.1052856,73.2143326c-8.0685425-7.8907394-24.7683716-24.0551872-24.9489746-24.2155762
				l24.9205322,24.2357483C554.0859375,73.2273865,554.09552,73.2207336,554.1052856,73.2143326z"/>
			<path class="st29" d="M602.7705688,103.2019958c5.1594238,9.6380157,10.3793945,18.9980164,15.6893921,28.8080139
				c1.7999878,3.2399902,3.5100098,6.3899994,5.2828369,9.5333405"/>
		</g>
		<g>
			<defs>
				<path id="SVGID_71_" d="M586.1500244,108.9069977l37.0799561,32.6430054l-37.0697021-32.6700058
					C586.1570435,108.8890915,586.1538696,108.8980865,586.1500244,108.9069977"/>
			</defs>
			<clipPath id="SVGID_72_">
				<use xlink:href="#SVGID_71_"  style="overflow:visible;"/>
			</clipPath>
			<rect x="586.1499634" y="108.8799973" class="st34" width="37.0800018" height="32.6699982"/>
			<use xlink:href="#SVGID_71_"  style="overflow:visible;fill:none;stroke:#ED1C24;stroke-miterlimit:10;"/>
		</g>
		<g>
			<path class="st29" d="M586.1602783,108.8799973c-0.0032349,0.0090942-0.0064087,0.0180969-0.0102539,0.0270081
				l37.0800171,32.6429977L586.1602783,108.8799973z"/>
		</g>
		<g>
			<defs>
				<path id="SVGID_73_" d="M623.2299805,142.0899963l-40.5-22.1399994L623.2299805,142.0899963z"/>
			</defs>
			<clipPath id="SVGID_74_">
				<use xlink:href="#SVGID_73_"  style="overflow:visible;"/>
			</clipPath>
			<rect x="582.7299805" y="119.9500046" class="st35" width="40.5" height="22.1399975"/>
			<use xlink:href="#SVGID_73_"  style="overflow:visible;fill:none;stroke:#ED1C24;stroke-miterlimit:10;"/>
		</g>
		<g>
			<line class="st29" x1="623.2299805" y1="142.0899963" x2="582.7299805" y2="119.9499969"/>
		</g>
		<g>
			<defs>
				<path id="SVGID_75_" d="M521.5300293,141.7299957l35.7299805-33.3899994L521.5300293,141.7299957z"/>
			</defs>
			<clipPath id="SVGID_76_">
				<use xlink:href="#SVGID_75_"  style="overflow:visible;"/>
			</clipPath>
			<rect x="521.5299683" y="108.3399963" class="st36" width="35.7300034" height="33.3899994"/>
			<use xlink:href="#SVGID_75_"  style="overflow:visible;fill:none;stroke:#ED1C24;stroke-miterlimit:10;"/>
		</g>
		<g>
			<line class="st29" x1="557.2600098" y1="108.3399963" x2="521.5300293" y2="141.7299957"/>
		</g>
		<g>
			<path class="st37" d="M643.1497192,89.7970123l-56.9996948-16.1970215c0,0-0.0463867-0.0233154-0.105835-0.0532837"/>
			<line class="st37" x1="644.2000122" y1="90.1600037" x2="643.2396851" y2="89.8870316"/>
			<path class="st37" d="M644.1099854,90.5199966c-8.630188,2.6525726-57.9762573,17.5455017-58.3911133,17.670784"/>
			<line class="st37" x1="589.4799805" y1="90.1600037" x2="644.2000122" y2="90.3399963"/>
			<path class="st37" d="M555.1021729,97.7200012c-0.0220947,0.835289,0.0650635,1.2687302,0.187561,1.7448273
				c0.7991943,3.1058197,1.5202637,6.0851746,1.9702759,8.8751678"/>
			<path class="st37" d="M498.9820557,90.2493439c19.5476685-5.7846527,58.4351807-17.5226364,58.5479736-17.7293625"/>
			<path class="st37" d="M543.1300049,103.75c2.0357056,0.5975113,12.9466553,4.1153412,14.4899902,4.5899963"/>
			<path class="st37" d="M498.9820557,90.4126434c7.6979675,2.2673721,43.2479858,13.0673676,43.878418,13.2925491"/>
			<line class="st37" x1="553.4799805" y1="90.3399963" x2="499.480011" y2="90.4300003"/>
			<path class="st37" d="M571.7949829,162.1790771c0.6749878-2.809082,16.9650269-66.0790863,17.1642456-67.5091858"/>
			<path class="st37" d="M571.3900146,162.25c-5.8416748-22.656601-11.5714722-44.8315201-17.3699951-67.5899963"/>
			<line class="st37" x1="571.5700073" y1="110.9499969" x2="571.5700073" y2="162.25"/>
			<line class="st37" x1="571.5700073" y1="108.690155" x2="571.5700073" y2="111.6158829"/>
			<path class="st37" d="M560.7700195,59.8300018c-0.9335938,3.4794006-1.852478,6.9631195-2.7684937,10.4475708
				c-0.9102783,3.4625549-1.8178101,6.926033-2.7341919,10.3868027c-0.5192261,1.9609146-1.282959,5.5291519-1.3373413,5.7156219"/>
			<path class="st37" d="M582.8284302,61.6147079c-0.873291-3.4015427-11.1442261-44.0776749-11.1635132-44.1428375
				c-3.6558838,14.4227753-7.3800659,28.7877617-11.0829468,43.1648979"/>
			<path class="st37" d="M588.9400024,86.0199966c-0.7775269-3.2638397-1.3623657-5.8364944-2.1990967-9.0860291
				c-0.8422241-3.2710495-1.6934204-6.5378799-2.5081787-9.8158569c-0.456604-1.8373413-0.8991089-3.6785622-1.4042969-5.5034027"/>
		</g>
		<g>
			<defs>
				<path id="SVGID_77_" d="M571.5700073,72.5199966V17.9799995V72.5199966z"/>
			</defs>
			<clipPath id="SVGID_78_">
				<use xlink:href="#SVGID_77_"  style="overflow:visible;"/>
			</clipPath>
			<polygon class="st38" points="571.5700073,17.9799995 571.5700073,17.9799995 571.5700073,72.5199966 			"/>
			<use xlink:href="#SVGID_77_"  style="overflow:visible;fill:none;stroke:#ED1C24;stroke-miterlimit:10;"/>
		</g>
		<g>
			<line class="st37" x1="571.5700073" y1="17.9799995" x2="571.5700073" y2="72.5199966"/>
			<path class="st37" d="M557.0224609,79.6152802c-2.225647,2.9953842-3.5424194,6.7062607-3.5424194,10.724762
				c0,9.9411316,8.0588379,18,18,18c9.9411011,0,18-8.0588684,18-18s-8.0588989-18-18-18
				C565.557312,72.3400421,560.3027344,75.2005081,557.0224609,79.6152802"/>
		</g>
	</g>
</g>
</svg>
