<?xml version="1.0" encoding="utf-8"?>
<!-- Generator: Adobe Illustrator 24.1.1, SVG Export Plug-In . SVG Version: 6.00 Build 0)  -->
<svg version="1.1" xmlns="http://www.w3.org/2000/svg" xmlns:xlink="http://www.w3.org/1999/xlink" x="0px" y="0px"
	 viewBox="0 0 2000 2000" style="enable-background:new 0 0 2000 2000;" xml:space="preserve">
<style type="text/css">
	.st0{fill:none;stroke:#000000;stroke-width:12;stroke-linecap:round;stroke-linejoin:round;stroke-miterlimit:10;}
	.st1{fill:url(#SVGID_1_);stroke:#000000;stroke-width:12;stroke-linecap:round;stroke-linejoin:round;stroke-miterlimit:10;}
	.st2{fill:url(#SVGID_2_);stroke:#000000;stroke-width:12;stroke-linecap:round;stroke-linejoin:round;stroke-miterlimit:10;}
	.st3{fill:url(#SVGID_3_);stroke:#000000;stroke-width:12;stroke-linecap:round;stroke-linejoin:round;stroke-miterlimit:10;}
	.st4{fill:url(#SVGID_4_);stroke:#000000;stroke-width:12;stroke-linecap:round;stroke-linejoin:round;stroke-miterlimit:10;}
	.st5{fill:url(#SVGID_5_);stroke:#000000;stroke-width:12;stroke-linecap:round;stroke-linejoin:round;stroke-miterlimit:10;}
	.st6{fill:url(#SVGID_6_);stroke:#000000;stroke-width:12;stroke-linecap:round;stroke-linejoin:round;stroke-miterlimit:10;}
	.st7{fill:url(#SVGID_7_);stroke:#000000;stroke-width:12;stroke-linecap:round;stroke-linejoin:round;stroke-miterlimit:10;}
	.st8{fill:url(#SVGID_8_);stroke:#000000;stroke-width:12;stroke-linecap:round;stroke-linejoin:round;stroke-miterlimit:10;}
	.st9{fill:url(#SVGID_9_);stroke:#000000;stroke-width:12;stroke-linecap:round;stroke-linejoin:round;stroke-miterlimit:10;}
	.st10{fill:none;stroke:#000000;stroke-width:10;stroke-miterlimit:10;}
	.st11{fill:url(#SVGID_10_);stroke:#000000;stroke-width:10;stroke-miterlimit:10;}
</style>
<g id="main">
	<g>
		<g>
			<path class="st0" d="M1560,430 C1560,432,1346,806,1319,854"/>
			<path class="st0" d="M1560,430 C1430,560,1308,684,1182,815"/>
			<path class="st0" d="M1560,430 C1497,465,1144,680,1132,687"/>
		</g>
		<g>
			<path class="st0" d="M448.2285767,1574.1103516C487,1550,524,1528,564,1504c54-34,103-63,157-96
				c53-32,98.8302612-62.1950684,150-93"/>
			<path class="st1" d="M450,1570"/>
			<path class="st2" d="M682.9987793,1151c-79.8045044,140.2961426-159.3955078,279.6568604-238.3754272,420.1621094
				L683,1151.0012207C682.9996338,1151.0007324,682.9992065,1151.0004883,682.9987793,1151z"/>
		</g>
		<g>
			<path class="st0" d="M655.5753174,858.9902344C615,787,577,716,536,642c-11-21-21-40-33-60c-6-11-13-22-19-34
				c-20-38-41-73-59.8254395-109.5793457"/>
			<path class="st3" d="M873.7123413,667.2945557C789,624,707,581,621,537c-41-20-80-40-121-62c-8-4-17-8-25-12
				c-17-9-33-19-49.5605774-25.8799438"/>
			<path class="st4" d="M428.3552246,442.0579224C459,473,490,502,522,534
				c2.7720337,2.2176514,5.2380371,4.4352417,7.736145,6.6528931L428.3552246,442.0579224z"/>
			<path class="st5" d="M806.9477539,809.7149048c-89.6514893-87.6754761-275.2037964-267.2796631-277.2116089-269.0620117
				l276.8955688,269.2862549C806.7323608,809.8596802,806.8387451,809.7860718,806.9477539,809.7149048z"/>
		</g>
		<g>
			<path class="st0" d="M1347.6729736,1142.9110107C1405,1250,1463,1354,1522,1463c20,36,39,71,58.6987305,105.9259033"/>
			
			<path class="st6" d="M1163.1141357,1206c-0.0357666,0.100708-0.071167,0.2012939-0.1141357,0.2998047L1575,1569
				L1163.1141357,1206z"/>
			<line class="st8" x1="1575" y1="1575" x2="1125" y2="1329"/>
		</g>
	</g>
	<line class="st9" x1="842" y1="1200" x2="445.0000305" y2="1571"/>
</g>
<g id="main">
	<g>
		<g>
			<g>
				<path class="st10" d="M1158,1199"/>
				<path class="st10" d="M1187.1656494,1077.0831299"/>
				<path class="st10" d="M1187.1656494,1077.0831299"/>
				<path class="st10" d="M1187.9545898,931.4840698"/>
				<path class="st10" d="M1179.072876,875.4360962"/>
				<path class="st10" d="M1796.3302002,993.9666748L1163,814c0,0-0.5150146-0.2595215-1.175415-0.5916138"/>
				<line class="st10" x1="1808" y1="998" x2="1797.3302002" y2="994.9666748"/>
				<path class="st10" d="M1807,1002c-95.8902588,29.472168-644.1807861,194.9501953-648.7897949,196.3415527"/>
				<line class="st10" x1="1200" y1="998" x2="1808" y2="1000"/>
			</g>
		</g>
		<g>
			<g>
				<path class="st10" d="M818.0237427,1082c-0.2445068,9.2811279,0.7235107,14.0965576,2.0848389,19.387207
					C828.987915,1135.8962402,837,1169,842,1200"/>
				<path class="st10" d="M194.4670715,998.9929199C411.6628723,934.7180786,843.7476196,804.2969971,845,802"/>
				<path class="st10" d="M685,1149c22.6187134,6.638916,143.8519287,45.7255859,161,51"/>
				<path class="st10" d="M194.4670715,1000.8071289C280,1026,675,1146,682.0049438,1148.5023193"/>
				<line class="st10" x1="800" y1="1000" x2="200" y2="1000.9998779"/>
			</g>
		</g>
		<g>
			<g>
				<g>
					<path class="st10" d="M1003.5,1798.2116699C1011,1767,1192,1064,1194.213623,1048.1102295"/>
					<path class="st10" d="M999,1799c-64.9071045-251.7401123-128.5724487-498.1280518-193-751"/>
				</g>
				<path class="st10" d="M1001,1229c0,185.270874,0,384.3256836,0,570"/>
				<line class="st10" x1="1001" y1="1203.8909912" x2="1001" y2="1236.3985596"/>
			</g>
		</g>
		<g>
			<path class="st10" d="M881,661c-10.3729858,38.6602783-20.5825195,77.3679199-30.7609863,116.0842285
				c-10.114502,38.4731445-20.197876,76.9552002-30.3798828,115.4090576C814.0900879,914.2810059,805.6038208,953.9282837,805,956"
				/>
			<path class="st10" d="M1126.0939941,680.8300171c-9.7037354-37.7954102-123.8253174-489.7526245-124.0397339-490.4755249
				c-40.6207275,160.2527161-82.000061,319.8638611-123.1438599,479.6091309"/>
			<path class="st10" d="M1194,952c-8.6387939-36.2648926-15.137085-64.8502197-24.4337158-100.9557495
				c-9.3583984-36.3449707-18.8167725-72.6434937-27.8686523-109.0647583
				c-5.0737305-20.4151001-9.9904785-40.8734131-15.6036377-61.1494751"/>
			<line class="st11" x1="1001" y1="196" x2="1001" y2="802"/>
		</g>
		<path class="st10" d="M839.3605957,880.8363037C814.6311646,914.1182861,800,955.3504639,800,1000
			c0,110.4569092,89.5430298,200,200,200s200-89.5430908,200-200s-89.5430908-200-200-200
			C934.1925659,800,875.8084106,831.7830811,839.3605957,880.8363037"/>
	</g>
</g>
</svg>
